<?xml version="1.0" encoding="UTF-8"?>
<svg id="Layer_2" data-name="Layer 2" xmlns="http://www.w3.org/2000/svg" width="100.35mm" height="28.04mm" xmlns:xlink="http://www.w3.org/1999/xlink" viewBox="0 0 284.46 79.49">
  <defs>
    <filter id="drop-shadow-1" x="0" y="0" width="285.88" height="80.91" filterUnits="userSpaceOnUse">
      <feOffset dx="1.42" dy="1.42"/>
      <feGaussianBlur result="blur" stdDeviation="0"/>
      <feFlood flood-color="#898989" flood-opacity="1"/>
      <feComposite in2="blur" operator="in"/>
      <feComposite in="SourceGraphic"/>
    </filter>
  </defs>
  <g id="Layer_2-2" data-name="Layer 2">
    <g style="filter: url(#drop-shadow-1);">
      <path d="M3.87,44.25c-.46-1.12-.93-2.49-1.42-4.1-.49-1.61-.93-3.15-1.34-4.63-.2-.92-.36-1.74-.46-2.45-.1-.71-.15-1.49-.15-2.34s.08-1.8.23-2.88c.15-1.07.36-2.38.61-3.91.15-.87.28-1.6.38-2.19.1-.59.24-1.15.42-1.69.18-.54.39-1.11.65-1.72.26-.61.59-1.33,1-2.15.51-1.02.87-1.85,1.07-2.49.2-.64.36-1.42.46-2.34.1-.41.18-.8.23-1.19.05-.38.13-.65.23-.8.36-1.23,1.25-2.27,2.68-3.14.31-.15.73-.38,1.26-.69.54-.31,1.11-.6,1.72-.88.61-.28,1.19-.55,1.72-.8.54-.26.93-.41,1.19-.46,1.23-.41,2.61-.46,4.14-.15.71.15,1.71.23,2.99.23s2.62.09,3.87.27c1.25.18,2.54.5,3.87.96.61.21,1.25.56,1.92,1.07.66.51,1.31,1.1,1.95,1.76.64.66,1.25,1.39,1.84,2.19.59.79,1.09,1.62,1.49,2.49.41.82.79,1.91,1.15,3.26s.59,2.72.69,4.1c.1.61.17,1.43.19,2.45.02,1.02.04,2.06.04,3.1s-.01,2.05-.04,2.99c-.03.94-.07,1.65-.12,2.11-.05.41-.1.78-.15,1.11-.05.33-.09.7-.12,1.11-.03.41-.05.88-.08,1.42-.03.54-.07,1.22-.12,2.03-.1,1.18-.2,2.17-.31,2.99s-.28,1.58-.54,2.3c-.1.21-.22.56-.34,1.07-.13.51-.27,1.05-.42,1.61-.26,1.02-.47,1.85-.65,2.49s-.4,1.2-.65,1.69-.57.97-.96,1.46,1.57-2.12.96-1.46c-.77.92-3.51,21.14-3.87,21.8-.36.67-1.3-14.76-1.19-13.72,1.19,11.04-.84,2.68-1.46,2.07-.1-.1-.17-.23-.19-.38-.02-.15-.06-.49-.11-.99-.05-.36-.08-.65-.08-.88s-.03-.37-.08-.42c-.1-.26-.48-.38-1.15-.38-.51.05-.92.13-1.23.23-.31.1-.82.41-1.53.92-1.02.66-1.66,1.26-1.92,1.8-.26.54-.58,19.4-.58,20.58,0,1.74.31-3.88,0-3.52-.31.36-.9-11.02-1.26-11.43-.51-.66-.79-1.89-.84-3.68-.1-1.38-.26-2.27-.46-2.68-.21-.41-.61-.66-1.23-.77-.2-.05-.45-.1-.73-.15-.28-.05-.55-.13-.8-.23-.66-.26-1.23-.38-1.69-.38-.82,0-1.39.31-1.72.92-.33.61-.55,1.28-.65,1.99-.2,1.33-.51,2.02-.92,2.07-.2,0-.38-.1-.54-.31-.2-.26-.38-.65-.54-1.19s-.36-1.39-.61-2.57c-.15-.92.19,12.11.04,11.57s-.83-14.78-1.03-15.21-.46-.85-.77-1.27c-.31-.41-.72-.92-1.23-1.53-.41-.41-.75-.82-1.04-1.23-.28-.41-.47-.71-.57-.92-.1-.16-.19-.4-.27-.73-.08-.33-.17-.65-.27-.96-.1-.36-.21-.74-.31-1.15-.1-.41-.2-.77-.31-1.07ZM15.37,36.13c-.61,1.94-.56,3.58.15,4.91.56,1.02,1.37,1.79,2.41,2.3,1.05.51,2.13.77,3.26.77.46,0,.98-.05,1.57-.15.59-.1,1.17-.26,1.76-.46.59-.2,1.12-.46,1.61-.76.48-.31.86-.66,1.11-1.07,1.02-1.58,1.28-3.81.77-6.67-.05-.25-.1-.57-.15-.96-.05-.38-.1-.7-.15-.96-.1-.77-.23-1.57-.38-2.41s-.36-1.7-.61-2.57c-.36-1.28-.6-2.3-.73-3.07-.13-.77-.22-1.76-.27-2.99-.05-.66-.09-1.25-.12-1.76-.03-.51-.06-.82-.12-.92-.1-.15-.27-.31-.5-.46-.23-.16-.4-.18-.5-.08-.05.1-.08.21-.08.31-.05.1-.08.23-.08.38s-.07,8.58-.12,8.74c-.1,1.18-.18-6.31-.3-5.9-.13.41-.32.59-.58.54-.26-.05-.43-.27-.54-.65-.1-.38-.18-1.06-.23-2.03-.05-.87-.12-1.44-.19-1.72-.08-.28-.29-.65-.65-1.11-.1-.1-.19-.28-.27-.54s-.17-.51-.27-.77c-.1-.51-.23-.84-.38-.99s-.41-.28-.77-.38c-.26-.05-.45-.05-.58,0-.13.05-.32.15-.58.31-.36.26-.65.5-.88.73-.23.23-.5.55-.8.96-.61.87-1,1.7-1.15,2.49-.15.79-.1,1.75.15,2.87.2.77.31,1.3.31,1.61s-.08.74-.23,1.3c-.1.36-.17.75-.19,1.19-.03.43-.06,1.29-.11,2.57,0,2.2-.04,3.81-.12,4.83-.08,1.02-.24,1.89-.5,2.6Z" style="fill: #fff; stroke: #898989; stroke-miterlimit: 10; stroke-width: 1px;"/>
      <path d="M52.92,50.53c-.15-.36-.36-.87-.61-1.53s-.49-1.3-.69-1.92c-.41-1.12-.8-2.12-1.19-2.99-.38-.87-.73-1.51-1.04-1.91-.2-.31-.37-.63-.5-.96-.13-.33-.24-.74-.34-1.23-.1-.48-.18-1.1-.23-1.84-.05-.74-.1-1.65-.15-2.72-.05-.97-.09-1.76-.12-2.38-.03-.61-.06-1.12-.11-1.53-.05-.41-.12-.75-.19-1.04s-.17-.52-.27-.73l-.31-.69v1.38c-.1,2.45-.43,4.01-1,4.68-.41.51-.79.43-1.15-.23-.1-.2-.15-.42-.15-.65s.02-.68.08-1.34c.1-1.23.14-2.18.11-2.88-.03-.69-.11-1.31-.27-1.88-.2-.56-.33-1.51-.38-2.83,0-.56-.03-1.11-.08-1.65-.05-.54-.13-.96-.23-1.27-.1-.31-.18-.78-.23-1.42-.05-.64-.13-1.26-.23-1.88-.05-.71-.13-1.46-.23-2.22-.1-.77-.21-1.43-.31-1.99-.1-.56-.2-1.11-.31-1.65s-.18-.93-.23-1.19c-.05-.26-.13-.56-.23-.92-.1-.36-.2-.66-.31-.92-.82-1.99-.87-3.65-.15-4.98.36-.66.79-1.09,1.3-1.27.51-.18,1.51-.32,2.99-.42.66-.05,1.38-.1,2.15-.15.77-.05,1.35-.13,1.76-.23,1.43-.2,2.49-.27,3.18-.19.69.08,1.29.32,1.8.73.41.36.66.73.77,1.11s.15,1.24.15,2.57v2.3l.61,2.68c.2.71.38,1.54.54,2.49.15.95.28,1.7.38,2.26.15.92.28,1.7.38,2.34s.2,1.23.31,1.76c.1.54.24,1.06.42,1.57s.42,1.15.73,1.91c.87,1.99,1.44,3.99,1.72,5.98s.47,4.06.58,6.21c0,.72.02,1.21.08,1.49.05.28.13.5.23.65.15.31.46.54.92.69s.84.18,1.15.08c.2-.1.37-.38.5-.85.13-.46.29-1.35.5-2.68.26-1.89.58-3.74.96-5.55.38-1.81.85-3.61,1.42-5.4.51-1.18.92-2.21,1.23-3.1.31-.89.54-1.79.69-2.68.15-.89.24-1.8.27-2.72.02-.92.04-1.99.04-3.22,0-3.02.11-5.21.34-6.59.23-1.38.63-2.4,1.19-3.07.36-.41.88-.68,1.57-.8.69-.13,1.44-.09,2.26.12.36.1.65.17.88.19.23.03.55.02.96-.04.56-.1,1.03-.13,1.42-.07.38.05.93.18,1.65.38,1.07.31,1.81.87,2.22,1.69.1.15.22.33.35.54.13.21.24.36.34.46.46.46.69,1.18.69,2.15,0,.56-.13,1.34-.38,2.34-.26,1-.66,2.39-1.23,4.18-.41,1.07-.72,2.01-.92,2.8s-.33,1.34-.38,1.65c-.2,1.18-.1,2.81.31,4.91.1.61.18,1.25.23,1.91.05.67.1,1.58.15,2.76.1,1.64.13,2.7.08,3.18-.05.49-.2.78-.46.88s-.77,5.34-.92,4.9c-.15-.43,0-6.64-.15-7.81-.15-.71-.23-1.18-.23-1.38,0-.05-.05.04-.15.27-.1.23-.2.54-.31.92s-.2.8-.31,1.23c-.1.43-.2.83-.31,1.18-.2.87-.43,1.69-.69,2.45-.26.77-.61,1.61-1.07,2.53-.21.51-.41,1.02-.61,1.53-.21.51-.42,1.11-.65,1.8-.23.69-.49,1.52-.77,2.49s-.63,2.17-1.03,3.6c-.36,1.28-.89,2.35-1.61,3.22l-.54.77v.92c0,.26.01.54.04.84.02.31.04.56.04.77.05.26.1.64.15,1.15.05.51.73,6.34.73,6.87s0-.43,0,0-.68-3.17-.73-3.12c-.41.81-.95,1.04-1.61.69-.41-.21-.69-.72-.84-1.53-.2-.97-.56-1.53-1.07-1.68-.26-.1-.64-.13-1.15-.08-.51.05-1.05.13-1.61.23-.56.2-.87.38-.92.54-.1.2-.14.59-.12,1.15.02.56.09,1.2.19,1.92.2,1.02.23,2.02.08,2.99s-.02,7.25-.27,7.36c-.46.21-1.07-.69-1.53-1.15-.31-.31-.7-5.66-.8-6.09-.1-.43-.21-1.11-.31-2.03-.1-1.13-.31-2.06-.61-2.8-.31-.74-1.05-1.29-2.22-1.65-.82-.26-1.53-.74-2.15-1.45-.26-.26-.55-.5-.88-.73-.33-.23-.63-.35-.88-.35s-.53-.15-.8-.46c-.28-.31-.5-.64-.65-.99,0-.1-.07-.31-.19-.61-.13-.31-.29-.64-.5-1Z" style="fill: #fff; stroke: #898989; stroke-miterlimit: 10; stroke-width: 1px;"/>
      <path d="M87.09,11.3c-.15-.81-.26-1.89-.31-3.22-.05-1.63.01-2.9.19-3.79.18-.89.5-1.57.96-2.03.31-.31.65-.51,1.04-.61.38-.1,1.08-.13,2.11-.08,1.18.05,1.97.08,2.38.08s.79-.05,1.15-.15c.31-.05.54-.05.69,0,.15.05.43.13.84.23l.77.38,2.76-.07c1.94-.05,3.55-.08,4.83-.08s2.58.03,3.91.08h1.45c.36,0,.73-.02,1.11-.08.38-.05.83-.14,1.34-.27.51-.12,1.2-.29,2.07-.5.87-.25,1.8-.45,2.8-.57,1-.13,1.78-.14,2.34-.04,1.74.31,2.94,1.07,3.6,2.3.25.61.28,1.74.08,3.37-.05.41-.09.87-.12,1.38-.03.51-.04.92-.04,1.23,0,.51-.01,1.06-.04,1.65-.03.59-.06,1.14-.12,1.65s-.1.94-.15,1.3c-.05.36-.1.59-.15.69-.05.1-.1.28-.15.54s-.13.51-.23.77c-.41,1.84-1.05,2.76-1.92,2.76-.26,0-.46-.05-.61-.15-.15-.1-.41-.33-.77-.69-.26-.26-.47-.45-.65-.57-.18-.13-.4-.24-.65-.35-.36-.1-.64-.17-.84-.19s-.66-.01-1.38.04c-.87.05-1.83.13-2.87.23-1.05.1-1.72.2-2.03.31-.26.05-.49.18-.69.38-.05.1-.11.32-.19.65-.08.33-.17.7-.27,1.11-.46,2.25-1.07,3.22-1.84,2.91-.26-.1-.46-.28-.61-.54-.1-.2-.15-.38-.15-.54s.02-.43.08-.84c.15-.87.18-1.46.08-1.76-.1-.31-.41-.61-.92-.92-.26-.1-.49-.18-.69-.23s-.66-.08-1.38-.08c-.87-.05-1.46-.04-1.76.04-.31.08-.66.3-1.07.65-.92.77-1.15,1.58-.69,2.45.15.26.28.66.38,1.23.15.92.64,1.58,1.46,1.99.56.26,2.2.26,4.91,0,.56-.05,1.12-.09,1.69-.12.56-.02.97-.04,1.23-.04.56,0,.94-.04,1.15-.12.2-.08.51-.27.92-.57.2-.16.39-.28.58-.38.18-.1.45-.17.8-.19.36-.02.8-.04,1.34-.04s1.26.02,2.18.08c.71,0,1.29.01,1.72.04.43.02.78.05,1.03.07.26.03.45.07.58.12.13.05.27.1.42.15.26.1.58.32.96.65.38.33.6.58.65.73v.15c0,.1.01.18.04.23.02.05.04.13.04.23v1.04c0,.54-.03,1.13-.08,1.76-.05.64-.09,1.25-.11,1.84-.03.59-.07.99-.12,1.19-.05.1-.13.31-.23.61-.1.31-.2.61-.31.92-.36.76-.73,1.32-1.11,1.65-.38.33-1.09.7-2.11,1.11-.87.31-1.38.6-1.53.88-.15.28-.23.91-.23,1.88,0,1.64-.38,2.38-1.15,2.22-.26-.1-.43-.31-.54-.61-.1-.31-.2-.84-.31-1.61-.15-1.63-.46-2.5-.92-2.6-.2-.1-.59-.1-1.15,0-.26,0-1.16-.54-1.26.04-.65,3.55-1.14,2.02-1.8,2.07-.67,0-1.29-1.93-1.72-1.88-.43.05-.78.12-1.04.19-.26.07-.46.19-.61.34-.15.16-.33.36-.54.61-.15.21-.34.41-.58.61-.23.2-.45.38-.65.54-.67.46-1.1.92-1.3,1.38-.26.66-.23,1.41.08,2.22.26.82.59,1.33,1,1.53.15.05.56.09,1.23.12.66.03,1.42.03,2.26,0,.84-.02,1.66-.06,2.45-.12.79-.05,1.39-.1,1.8-.15.41-.1,1.04-.17,1.88-.19.84-.02,1.93-.07,3.26-.12,1.07-.05,2.07-.09,2.99-.12.92-.02,1.48-.06,1.69-.12.87-.1,1.61.18,2.22.84.61.51.84,1.13.69,1.84,0,.15.01.49.04,1,.02.51.06,1.05.12,1.61.15,1.58.14,2.75-.04,3.49-.18.74-.63,1.42-1.34,2.03-.2.15-.43.37-.69.65-.26.28-.46.55-.61.8-.41.56-.72.95-.92,1.15-.21.2-.49.36-.84.46-.82.26-1.43.7-1.84,1.34s-.69,1.34-.84,2.11c-.15.87-.33,1.44-.54,1.72-.21.28-.51.42-.92.42-.36,0-.64-.13-.84-.38s-.36-.57-.46-.96-.17-.77-.19-1.15c-.02-.38-.04-.7-.04-.96-.05-1.02-.13-1.63-.23-1.84-.1-.21-.36-.36-.77-.46-.87-.26-2.91-.18-6.13.23-1.12.15-1.92.2-2.38.15s-1.05-.2-1.76-.46c-.67-.31-1.28-.46-1.84-.46-.41,0-.95.13-1.61.38-.26.1-.54.21-.84.31-.31.1-.59.18-.84.23-.46.1-.82.2-1.07.31-.2.21-.38.97-.54,2.3-.1,1.23-.59,5.69-.92,6.2s-.49-2.96-1-3.22c-.26-.1-.43-.28-.54-.54-.1-.1-.18-.26-.23-.46-.05-.21-.08-.64-.08-1.3v-1.07c0-.31-.03-.49-.08-.54-.05-.15-.32-.45-.81-.88s-1.14-.98-1.95-1.65c-.51-.41-.91-.74-1.19-1s-.52-.51-.73-.77c-.2-.25-.37-.56-.5-.92-.13-.36-.27-.85-.42-1.46-.15-.61-.28-1.14-.38-1.57-.1-.43-.14-.88-.12-1.34.02-.46.09-.99.19-1.57.1-.59.25-1.34.46-2.26.15-.82.28-1.51.38-2.07.1-.56.18-1.17.23-1.84.05-.66.08-1.44.08-2.34v-3.64c0-1.79-.01-3.23-.04-4.33-.03-1.1-.08-2.08-.15-2.95s-.18-1.7-.31-2.49c-.13-.79-.32-1.75-.58-2.87-.1-.41-.18-.75-.23-1.04-.05-.28-.09-.6-.12-.96-.03-.36-.05-.79-.08-1.3-.03-.51-.04-1.18-.04-1.99-.05-1.53-.1-2.59-.15-3.18-.05-.59-.13-1.14-.23-1.65Z" style="fill: #fff; stroke: #898989; stroke-miterlimit: 10; stroke-width: 1px;"/>
      <path d="M156.91,4.78c.61.36,1.24.71,1.88,1.07.64.36,1.14.61,1.5.76,1.02.46,1.75.99,2.18,1.57.43.59.86,1.57,1.26,2.95.26.87.55,1.75.88,2.64.33.89.63,1.7.88,2.41.66,1.58.94,3.17.84,4.75,0,.31-.03.68-.08,1.11-.05.44-.13.78-.23,1.04-.1.36-.17.75-.19,1.19-.03.44-.06,1.06-.12,1.88l-.08,2.22-.61,1.23c-.66,1.28-1.19,2.31-1.57,3.1-.38.8-.68,1.48-.88,2.07-.2.59-.36,1.13-.46,1.61-.1.49-.2,1.11-.31,1.88-.21,1.58-.42,2.7-.65,3.33-.23.64-.55,1.09-.96,1.34-.26.16-.45.23-.57.23s-.32-.1-.58-.31c-.15-.15-.28-.35-.38-.58-.1-.23-.26-.62-.46-1.18-.31-1.08-.57-1.79-.8-2.15-.23-.36-.5-.48-.8-.38-.36.05-.66.43-.92,1.15-.05.36-.06.63-.04.8.02.18.14.6.34,1.27.26,1.02.58,1.88.96,2.57.38.69.98,1.55,1.8,2.57.46.56.79,1,1,1.3.2.31.43.77.69,1.38.1.26.24.55.42.88.18.33.4.65.65.96.41.56.68,1,.8,1.3s.22.82.27,1.53c.05.66.18,1.12.38,1.38.1.2.18.37.23.5.05.12.05.34,0,.65-.05.25-1.39,10.24-1.42,10.73-.03.49,1.26-8.63,1.26-8.12-.1,1.07-.2,1.79-.31,2.15-.1.36-.28.56-.54.61-.26.05-.42-.02-.5-.23-.08-.2-.14-.66-.19-1.38-.1-.72-.24-1.33-.42-1.84-.18-.51-.4-.87-.65-1.07-.1-.1-.2-.15-.31-.15s-.28.05-.54.15c-.36.1-.64.13-.84.08-.21-.05-.51-.21-.92-.46-.36-.21-.58-.32-.65-.34-.08-.03-.24,0-.5.11-.56.21-.84.82-.84,1.84,0,1.12-.23,1.71-.69,1.76-.36.1-.66-.28-.92-1.15-.15-.46-.31-.75-.46-.88-.15-.13-.46-.24-.92-.34-1.02-.16-1.61-.69-1.76-1.61,0-.15-.03-.38-.08-.69-.05-.31-.13-.61-.23-.92-.1-.71-.24-1.38-.42-1.99-.18-.61-.55-1.17-1.11-1.68-.67-.56-1.12-.99-1.38-1.27s-.51-.75-.77-1.42c-.61-1.48-1.25-2.66-1.91-3.53-.67-.87-1.23-1.33-1.69-1.38-.1-.05-.19-.02-.27.07-.08.1-.22.36-.42.77l-.46.84.08,1.69c.05.66.08,1.15.08,1.46s-.05.61-.15.92c-.1.36-.15.64-.15.84s.05.59.15,1.15c.1.56.15.96.15,1.19s-.05.47-.15.73c-.05.36-.22.8-.5,1.34-.28.54-.55.96-.81,1.27-.41.41-.64.69-.69.84-.05.15-.08.49-.08,1,0,.41-.01.68-.04.8-.03.12-.09.24-.19.34-.26.26-1.67,6.46-2.03,6.21-.21-.1.69-6.56.46-6.97-.23-.41-.34-.74-.34-1,0-.36-.46-.43-1.38-.23-.56.21-.93.45-1.11.73s-.32.93-.42,1.96c-.1,1.02-.27,1.73-.5,2.15-.23.41-.55.66-.96.76-.31,0-.56-.07-.77-.23-.26-.21-.43-.5-.54-.88s-.23-1.01-.38-1.88c-.1-.92-.22-1.52-.35-1.8s-.45-.65-.96-1.11c-.41-.41-.72-.78-.92-1.11-.2-.33-.43-.99-.69-1.96-.31-1.33-.28-2.88.08-4.67.1-.51.2-1.01.31-1.49.1-.49.19-1.04.27-1.65.08-.61.15-1.33.23-2.15s.17-1.81.27-2.99c.2-2.3.32-4.42.34-6.36.02-1.94-.01-3.83-.11-5.67-.26-2.65-.26-5.08,0-7.28.05-.51.08-1.13.08-1.84s-.01-1.47-.04-2.26c-.03-.79-.05-1.57-.08-2.34-.03-.77-.09-1.46-.19-2.07-.1-1.02-.15-1.85-.15-2.49s.05-1.09.15-1.34c.05-.15.15-.37.31-.65.15-.28.31-.55.46-.8.15-.26.33-.55.54-.88.2-.33.36-.6.46-.8.56-1.07,1.3-1.77,2.22-2.11.92-.33,1.92-.55,2.99-.65.41-.05.93-.11,1.57-.19.64-.08,1.24-.17,1.8-.27.56-.1,1.26-.19,2.11-.27.84-.08,1.6-.14,2.26-.19.72-.05,1.37-.09,1.96-.12.59-.02.98-.07,1.19-.12.56-.1,1.2-.14,1.91-.12s1.28.09,1.69.19c.97.21,2.68,1.1,5.13,2.68ZM152.62,26.7c.31-.51.6-1.44.88-2.8.28-1.35.42-2.67.42-3.94,0-1.18-.07-1.96-.19-2.34-.13-.38-.45-.83-.96-1.34-.41-.41-.7-.75-.88-1.04s-.32-.65-.42-1.11c-.15-.82-.31-1.23-.46-1.23-.1,0-.29.02-.57.07-.28.05-.56.12-.84.19-.28.07-.55.15-.8.23-.26.08-.38.14-.38.19-.05.05-.18.36-.38.92-.2,1.02-.59,1.51-1.15,1.46-.51-.1-.77-.64-.77-1.61,0-.61-.1-1.09-.31-1.42-.2-.33-.46-.45-.77-.35-.2.1-.33.38-.38.85-.05.46-.1,1.48-.15,3.07-.05.87-.09,1.91-.11,3.14-.03,1.23-.07,2.27-.12,3.14-.05.72-.08,1.29-.08,1.72v.99c0,.23.01.41.04.54.02.13.06.24.12.35.46.97,1.15,1.56,2.07,1.76.15.05.42.08.8.08h1.23c.43,0,.84-.02,1.23-.08.38-.05.68-.1.88-.15.92-.2,1.61-.64,2.07-1.3Z" style="fill: #fff; stroke: #898989; stroke-miterlimit: 10; stroke-width: 1px;"/>
      <path d="M166.54,7.3c.06-.27.34-.64.85-1.12.51-.48.91-.77,1.21-.87.09-.07.3-.2.63-.38s.68-.42,1.04-.69c.64-.47,1.06-.76,1.25-.84.19-.09.54-.15,1.06-.19.76-.13,1.46-.15,2.13-.07.66.09,1.35.26,2.07.49.28.11.56.29.84.55.28.26.56.58.83.94.08.14.18.42.3.84s.26.89.4,1.41c.14.52.29,1.05.44,1.59.15.55.26,1.02.33,1.42.13.76.26,1.84.38,3.24.12,1.41.18,2.57.19,3.51.01.36.02.7.02,1.01,0,.31.03.7.09,1.15.05.46.16,1.05.31,1.77.15.72.35,1.74.58,3.05.24,1.05.37,1.83.41,2.34.04.51.06,1.23.07,2.17.01.67.04,1.27.08,1.78.04.51.07,1.01.11,1.5.03.49.09,1,.15,1.53.07.53.14,1.18.23,1.95.06.66.14,1.22.22,1.67s.16.83.24,1.13c.08.3.18.57.3.8.12.24.25.47.4.71.57.88,1.08,1.46,1.51,1.72.44.26,1.11.36,2.04.3.31,0,.57-.02.77-.06l.64-.11c.23-.04.5-.11.82-.22.32-.11.74-.26,1.28-.46l1.47-.49h1.4c.62-.02,1.09-.04,1.39-.06.31-.03.71-.11,1.2-.25.8-.19,1.34-.21,1.62-.05s.67.69,1.14,1.59c.15.28.29.6.4.94.11.34.26,1.02.43,2.02.22.95.38,1.76.47,2.45.09.68.13,1.26.11,1.73-.02.47-.1.89-.25,1.25-.14.36-.34.72-.59,1.08-.21.3-.35.53-.42.7-.07.17-.11.41-.11.72,0,.88-.2,1.36-.6,1.43-.3.05-.59-.23-.85-.86-.27-.68-.67-.97-1.17-.88-.2.04-.58.23-1.14.59-.37.27-.63.45-.8.53s-.36.11-.57.1c-.42-.03-.78-.02-1.08.04-.31,0-.48.06-.52.17s-.04.5-.03,1.17c.06,1.23-.13,1.76-.58,1.58-.21-.02-.38-.4-.51-1.16-.16-.9-.33-1.29-.52-1.15-.28.15-.37.97-.27,2.46.02.41.05.81.09,1.19.04.38.05.63.01.74-.04.37-.15.65-.32.83s-.35.19-.54.02c-.24-.17-.4-.97-.5-2.4-.05-.56-.1-.94-.16-1.14-.06-.2-.23-.48-.5-.85-.36-.56-.66-.9-.92-1.01-.25-.11-.81-.12-1.68-.01-.41.02-.83.06-1.27.11-.43.05-.77.1-1.03.14l-.84.07-.16.42c-.03.11-.07.27-.11.48-.04.22.91,6.11.9,6.32,0,.93-1.14-4.21-1.47-4.04-.23.14-.43.15-.58.02s.2.54,0,0c-.26-.58-1.01-1.95-1.19-2.12-.19-.18-1,4.96-1.3,5.02-1.15.26-1.64-2.46-1.89-2.39-.25.07-.04-2.13-.11-1.97.03.15.05.41.06.77s.03.76.06,1.2c.02.44.03.84.02,1.2-.01.36-.04.58-.08.64-.11.28-.75,13.66-.92,13.58-.27-.06.04-13.5-.09-13.79-.13-.29.18,6.76,0,5.75-.15-.86-.51-6.66-.59-6.96-.08-.3-.48-3.15-.77-3.61-.15-.28-.3-.62-.45-1.01s-.27-.7-.36-.95-.2-.55-.32-.92c-.12-.37-.25-.69-.4-.98-.17-.38-.33-.83-.47-1.32-.14-.49-.3-1.24-.47-2.25-.17-.65-.3-1.17-.39-1.56-.1-.4-.18-.73-.26-1.01-.07-.27-.15-.53-.21-.78-.07-.25-.19-.56-.36-.95-.2-.54-.35-1.09-.45-1.67s-.16-1.36-.18-2.34c-.05-.87-.16-1.97-.35-3.29-.18-1.32-.43-2.72-.75-4.23-.12-.7-.19-1.16-.2-1.36-.01-.21.04-.6.14-1.19.17-1.38.03-2.75-.42-4.13-.21-.59-.36-1.08-.46-1.48-.1-.4-.16-.96-.18-1.68,0-.26,0-.69-.03-1.28-.03-.59-.06-1.21-.09-1.85-.04-.64-.09-1.29-.15-1.96-.07-.66-.11-1.2-.13-1.61-.04-.25-.1-.63-.16-1.14-.06-.51-.11-.97-.13-1.38-.08-.71-.14-1.23-.2-1.56s-.18-.73-.37-1.22c-.22-.63-.33-1.08-.35-1.34-.02-.26.04-.58.18-.97Z" style="fill: #fff; stroke: #898989; stroke-miterlimit: 10; stroke-width: 1px;"/>
      <path d="M201.43,11.3c-.15-.81-.26-1.89-.31-3.22-.05-1.63.01-2.9.19-3.79.18-.89.5-1.57.96-2.03.31-.31.65-.51,1.04-.61.38-.1,1.08-.13,2.11-.08,1.18.05,1.97.08,2.38.08s.79-.05,1.15-.15c.31-.05.54-.05.69,0,.15.05.43.13.84.23l.77.38,2.76-.07c1.94-.05,3.55-.08,4.83-.08s2.58.03,3.91.08h1.45c.36,0,.73-.02,1.11-.08.38-.05.83-.14,1.34-.27.51-.12,1.2-.29,2.07-.5.87-.25,1.8-.45,2.8-.57,1-.13,1.78-.14,2.34-.04,1.74.31,2.94,1.07,3.6,2.3.25.61.28,1.74.08,3.37-.05.41-.09.87-.12,1.38-.03.51-.04.92-.04,1.23,0,.51-.01,1.06-.04,1.65-.03.59-.06,1.14-.12,1.65s-.1.94-.15,1.3c-.05.36-.1.59-.15.69-.05.1-.1.28-.15.54s-.13.51-.23.77c-.41,1.84-1.05,2.76-1.92,2.76-.26,0-.46-.05-.61-.15-.15-.1-.41-.33-.77-.69-.26-.26-.47-.45-.65-.57-.18-.13-.4-.24-.65-.35-.36-.1-.64-.17-.84-.19s-1.16,2.21-1.88,2.26c-.87.05-1.33-2.09-2.38-1.99-1.05.1-1.72.2-2.03.31-.26.05-.49.18-.69.38-.05.1,2.8-1.02,2.72-.69-.08.33-3.08,2.04-3.18,2.45.29-.74-.87,2.39-1.84,2.91-.26-.1-.46-.28-.61-.54-.1-.2-.15-.38-.15-.54s.02-.43.08-.84c.15-.87.18-1.46.08-1.76-.1-.31-.41-.61-.92-.92-.26-.1-.49-.18-.69-.23s-.66-.08-1.38-.08c-.87-.05-1.46-.04-1.76.04-.31.08-.66.3-1.07.65-.92.77-1.15,1.58-.69,2.45.15.26.28.66.38,1.23.15.92.64,1.58,1.46,1.99.56.26,2.2.26,4.91,0,.56-.05,1.12-.09,1.69-.12.56-.02.97-.04,1.23-.04.56,0,.94-.04,1.15-.12.2-.08.51-.27.92-.57.2-.16.39-.28.58-.38.18-.1.45-.17.8-.19.36-.02.8-.04,1.34-.04s1.26.02,2.18.08c.71,0,1.29.01,1.72.04.43.02.78.05,1.03.07.26.03.45.07.58.12.13.05.27.1.42.15.26.1.58.32.96.65.38.33.6.58.65.73v.15c0,.1.01.18.04.23.02.05.04.13.04.23v1.04c0,.54-.03,1.13-.08,1.76-.05.64-.09,1.25-.11,1.84-.03.59-.07.99-.12,1.19-.05.1-.13.31-.23.61-.1.31-.2.61-.31.92-.36.76-.73,1.32-1.11,1.65-.38.33-1.09.7-2.11,1.11-.87.31-1.38.6-1.53.88-.15.28-.23.91-.23,1.88,0,1.64-.38,2.38-1.15,2.22-.26-.1-.43-.31-.54-.61-.1-.31-.2-.84-.31-1.61-.15-1.63-.46-2.5-.92-2.6-.2-.1-.59-.1-1.15,0-.26,0-.68.01-1.26.04-.59.02-1.21.07-1.88.12-.67,0-1.21.02-1.65.07-.43.05-.78.12-1.04.19-.26.07-.46.19-.61.34-.15.16-.33.36-.54.61-.15.21-.34.41-.58.61-.23.2-.45.38-.65.54-.67.46-1.1.92-1.3,1.38-.26.66-.23,1.41.08,2.22.26.82.59,1.33,1,1.53.15.05.56.09,1.23.12.66.03,1.42.03,2.26,0,.84-.02,1.66-.06,2.45-.12.79-.05,1.39-.1,1.8-.15.41-.1,1.04-.17,1.88-.19.84-.02,1.93-.07,3.26-.12,1.07-.05,2.07-.09,2.99-.12.92-.02,1.48-.06,1.69-.12.87-.1,1.61.18,2.22.84.61.51.84,1.13.69,1.84,0,.15.01.49.04,1,.02.51.06,1.05.12,1.61.15,1.58.14,2.75-.04,3.49-.18.74-.63,1.42-1.34,2.03-.2.15-.43.37-.69.65-.26.28-.46.55-.61.8-.41.56-.72.95-.92,1.15-.21.2-.49.36-.84.46-.82.26-1.43.7-1.84,1.34s-.69,1.34-.84,2.11c-.15.87-.33,1.44-.54,1.72-.21.28-.51.42-.92.42-.36,0-.64-.13-.84-.38s-.36-.57-.46-.96-.17-.77-.19-1.15c-.02-.38-.04-.7-.04-.96-.05-1.02-.13-1.63-.23-1.84-.1-.21-1.58.79-1.99.69-.87-.26-1.69-1.33-4.91-.92-1.12.15-1.92.2-2.38.15s-1.05-.2-1.76-.46c-.67-.31-1.28-.46-1.84-.46-.41,0-.95.13-1.61.38-.26.1-.54.21-.84.31-.31.1-.59.18-.84.23-.46.1-.82.2-1.07.31-.2.21-.38.97-.54,2.3-.1,1.23-.32,2.09-.65,2.6s-.75.64-1.26.38c-.26-.1-.43-.28-.54-.54-.1-.1-.18-.26-.23-.46-.05-.21-.08-.64-.08-1.3v-1.07c0-.31-.03-.49-.08-.54-.05-.15-.32-.45-.81-.88s-1.14-.98-1.95-1.65c-.51-.41-.91-.74-1.19-1s-.52-.51-.73-.77c-.2-.25-.37-.56-.5-.92-.13-.36-.27-.85-.42-1.46-.15-.61-.28-1.14-.38-1.57-.1-.43-.14-.88-.12-1.34.02-.46.09-.99.19-1.57.1-.59.25-1.34.46-2.26.15-.82.28-1.51.38-2.07.1-.56.18-1.17.23-1.84.05-.66.08-1.44.08-2.34v-3.64c0-1.79-.01-3.23-.04-4.33-.03-1.1-.08-2.08-.15-2.95s-.18-1.7-.31-2.49c-.13-.79-.32-1.75-.58-2.87-.1-.41-.18-.75-.23-1.04-.05-.28-.09-.6-.12-.96-.03-.36-.05-.79-.08-1.3-.03-.51-.04-1.18-.04-1.99-.05-1.53-.1-2.59-.15-3.18-.05-.59-.13-1.14-.23-1.65Z" style="fill: #fff; stroke: #898989; stroke-miterlimit: 10; stroke-width: 1px;"/>
      <path d="M253.39,50.53c-.15-.36-.36-.87-.61-1.53s-.49-1.3-.69-1.92c-.41-1.12-.8-2.12-1.19-2.99-.38-.87-.73-1.51-1.04-1.91-.2-.31-.37-.63-.5-.96-.13-.33-.24-.74-.34-1.23-.1-.48-.18-1.1-.23-1.84-.05-.74-.1-1.65-.15-2.72-.05-.97-.09-1.76-.12-2.38-.03-.61-.06-1.12-.11-1.53-.05-.41-.12-.75-.19-1.04s-.17-.52-.27-.73l-.31-.69v1.38c-.1,2.45-.62,12.98-1.19,13.64-.41.51-.6-8.53-.96-9.2-.1-.2-.15-.42-.15-.65s.02-.68.08-1.34c.1-1.23.14-2.18.11-2.88-.03-.69-.11-1.31-.27-1.88-.2-.56-.33-1.51-.38-2.83,0-.56-.03-1.11-.08-1.65-.05-.54-.13-.96-.23-1.27-.1-.31-.18-.78-.23-1.42-.05-.64-.13-1.26-.23-1.88-.05-.71-.13-1.46-.23-2.22-.1-.77-.21-1.43-.31-1.99-.1-.56-.2-1.11-.31-1.65s-.18-.93-.23-1.19c-.05-.26-.13-.56-.23-.92-.1-.36-.2-.66-.31-.92-.82-1.99-.87-3.65-.15-4.98.36-.66.79-1.09,1.3-1.27.51-.18,1.51-.32,2.99-.42.66-.05,1.38-.1,2.15-.15.77-.05,1.35-.13,1.76-.23,1.43-.2,2.49-.27,3.18-.19.69.08,1.29.32,1.8.73.41.36.66.73.77,1.11s.15,1.24.15,2.57v2.3l.61,2.68c.2.71.38,1.54.54,2.49.15.95.28,1.7.38,2.26.15.92.28,1.7.38,2.34s.2,1.23.31,1.76c.1.54.24,1.06.42,1.57s.42,1.15.73,1.91c.87,1.99,1.44,3.99,1.72,5.98s.47,4.06.58,6.21c0,.72.02,1.21.08,1.49.05.28.13.5.23.65.15.31.46.54.92.69s.84.18,1.15.08c.2-.1.37-.38.5-.85.13-.46.29-1.35.5-2.68.26-1.89.58-3.74.96-5.55.38-1.81.85-3.61,1.42-5.4.51-1.18.92-2.21,1.23-3.1.31-.89.54-1.79.69-2.68.15-.89.24-1.8.27-2.72.02-.92.04-1.99.04-3.22,0-3.02.11-5.21.34-6.59.23-1.38.63-2.4,1.19-3.07.36-.41.88-.68,1.57-.8.69-.13,1.44-.09,2.26.12.36.1.65.17.88.19.23.03.55.02.96-.04.56-.1,1.03-.13,1.42-.07.38.05.93.18,1.65.38,1.07.31,1.81.87,2.22,1.69.1.15.22.33.35.54.13.21.24.36.34.46.46.46.69,1.18.69,2.15,0,.56-.13,1.34-.38,2.34-.26,1-.66,2.39-1.23,4.18-.41,1.07-.72,2.01-.92,2.8s-.33,1.34-.38,1.65c-.2,1.18-.1,2.81.31,4.91.1.61-.05,8.08,0,8.74.05.67-.66-1.67-.61-.5.1,1.64-2.06,14.11-2.11,14.6-.05.49,2.97-14.2,2.72-14.1s-.46-.07-.61-.5c-.15-.43-.31-1.24-.46-2.41-.15-.71-.23-1.18-.23-1.38,0-.05-.05.04-.15.27-.1.23-.2.54-.31.92s-.2.8-.31,1.23c-.1.43-.2.83-.31,1.18-.2.87-.43,1.69-.69,2.45-.26.77-.61,1.61-1.07,2.53-.21.51-.41,1.02-.61,1.53-.21.51-.42,1.11-.65,1.8-.23.69-.49,1.52-.77,2.49s-.63,2.17-1.03,3.6c-.36,1.28-.89,2.35-1.61,3.22l-.54.77v.92c0,.26.01.54.04.84.02.31.04.56.04.77.05.26.57,7.51.62,8.02.05.51-.39-5.84-.39-5.3v1.46c0,.43,1.39,13.01,1.34,13.07-.41.81-2.37-11.29-3.03-11.65-.41-.21-.69-.72-.84-1.53-.2-.97-.56-1.53-1.07-1.68-.26-.1-.64-.13-1.15-.08-.51.05-1.05.13-1.61.23-.56.2-.87.38-.92.54-.1.2-.14.59-.12,1.15.02.56.09,1.2.19,1.92.2,1.02.23,2.02.08,2.99s.68,13,.42,13.1c-.46.21-1.96-11.42-2.42-11.88-.31-.31-.19,5.03-.29,4.6-.1-.43-.53-6.82-.63-7.74-.1-1.13-.31-2.06-.61-2.8-.31-.74-1.05-1.29-2.22-1.65-.82-.26-1.53-.74-2.15-1.45-.26-.26-.55-.5-.88-.73-.33-.23-.63-.35-.88-.35s-.53-.15-.8-.46c-.28-.31-.5-.64-.65-.99,0-.1-.07-.31-.19-.61-.13-.31-.29-.64-.5-1Z" style="fill: #fff; stroke: #898989; stroke-miterlimit: 10; stroke-width: 1px;"/>
    </g>
  </g>
</svg>