<?xml version="1.0" encoding="UTF-8"?>
<svg id="Layer_2" data-name="Layer 2" xmlns="http://www.w3.org/2000/svg" width="200.71mm" height="56.09mm" xmlns:xlink="http://www.w3.org/1999/xlink" viewBox="0 0 568.93 158.98">
  <defs>
    <filter id="drop-shadow-1" x="0" y="0" width="571.76" height="161.82" filterUnits="userSpaceOnUse">
      <feOffset dx="2.83" dy="2.83"/>
      <feGaussianBlur result="blur" stdDeviation="0"/>
      <feFlood flood-color="#898989" flood-opacity="1"/>
      <feComposite in2="blur" operator="in"/>
      <feComposite in="SourceGraphic"/>
    </filter>
  </defs>
  <g id="Layer_1-2" data-name="Layer 1">
    <g style="filter: url(#drop-shadow-1);">
      <path d="M7.74,88.5c-.92-2.25-1.87-4.98-2.84-8.2-.97-3.22-1.86-6.31-2.68-9.27-.41-1.84-.72-3.47-.92-4.91-.21-1.43-.31-2.99-.31-4.67s.15-3.6.46-5.75c.31-2.15.71-4.75,1.23-7.81.31-1.74.56-3.19.76-4.37.21-1.17.48-2.3.85-3.37.36-1.07.79-2.22,1.3-3.45.51-1.22,1.18-2.65,1.99-4.29,1.02-2.04,1.74-3.7,2.15-4.98.41-1.28.71-2.84.92-4.68.21-.82.36-1.61.46-2.38.1-.77.25-1.3.46-1.61.71-2.45,2.5-4.55,5.37-6.29.61-.31,1.46-.76,2.53-1.38,1.07-.61,2.22-1.2,3.45-1.76,1.23-.56,2.37-1.1,3.45-1.61,1.07-.51,1.86-.82,2.37-.92,2.45-.82,5.21-.92,8.28-.31,1.43.31,3.42.46,5.98.46s5.23.18,7.74.54c2.5.36,5.08,1,7.74,1.91,1.23.41,2.5,1.12,3.83,2.15,1.33,1.02,2.63,2.2,3.91,3.52,1.28,1.33,2.5,2.79,3.68,4.37,1.17,1.58,2.17,3.24,2.99,4.98.82,1.64,1.58,3.81,2.3,6.52s1.18,5.44,1.38,8.2c.2,1.22.33,2.86.38,4.9.05,2.05.07,4.12.07,6.21s-.02,4.09-.07,5.98c-.05,1.89-.13,3.29-.23,4.22-.1.82-.21,1.56-.31,2.22-.1.67-.18,1.41-.23,2.22-.05.82-.1,1.76-.15,2.84-.05,1.07-.13,2.43-.23,4.06-.21,2.35-.41,4.35-.61,5.98s-.56,3.17-1.07,4.6c-.21.41-.43,1.13-.69,2.15-.26,1.02-.54,2.1-.84,3.22-.51,2.05-.94,3.7-1.3,4.98s-.79,2.4-1.3,3.37c-.51.97-1.15,1.94-1.91,2.91s3.14-4.24,1.91-2.91c-1.53,1.84-7.03,42.28-7.74,43.6-.72,1.33-2.6-29.53-2.37-27.44,2.37,22.07-1.68,5.37-2.91,4.14-.21-.21-.33-.46-.38-.77-.05-.31-.13-.97-.23-1.99-.1-.72-.15-1.3-.15-1.76s-.05-.74-.16-.84c-.21-.51-.97-.77-2.3-.77-1.02.1-1.84.26-2.45.46-.61.21-1.64.82-3.07,1.84-2.05,1.32-3.32,2.53-3.83,3.6-.51,1.07-1.17,38.8-1.17,41.15,0,3.47.61-7.75,0-7.04-.61.71-1.8-22.03-2.51-22.85-1.02-1.33-1.58-3.78-1.68-7.35-.21-2.76-.51-4.55-.92-5.36-.41-.82-1.23-1.33-2.45-1.53-.41-.11-.89-.21-1.46-.31-.56-.11-1.1-.26-1.61-.46-1.33-.51-2.45-.77-3.37-.77-1.64,0-2.78.61-3.45,1.84-.67,1.23-1.1,2.55-1.3,3.99-.41,2.66-1.02,4.04-1.84,4.14-.41,0-.76-.21-1.07-.62-.41-.51-.77-1.3-1.07-2.38s-.71-2.78-1.23-5.13c-.31-1.84.38,24.21.07,23.14s-1.66-29.55-2.07-30.42-.92-1.71-1.53-2.53c-.61-.82-1.43-1.84-2.45-3.06-.82-.82-1.51-1.63-2.07-2.46-.56-.81-.94-1.43-1.15-1.83-.21-.31-.38-.79-.54-1.46-.15-.66-.33-1.3-.54-1.91-.21-.72-.41-1.48-.61-2.3-.21-.82-.41-1.53-.61-2.15ZM30.73,72.25c-1.23,3.89-1.13,7.15.31,9.81,1.12,2.05,2.73,3.58,4.83,4.6,2.09,1.02,4.27,1.53,6.51,1.53.92,0,1.96-.1,3.14-.31,1.17-.21,2.35-.51,3.52-.92,1.17-.41,2.25-.92,3.22-1.53.97-.62,1.71-1.33,2.22-2.15,2.04-3.17,2.55-7.61,1.53-13.34-.1-.51-.21-1.15-.31-1.91-.1-.77-.21-1.4-.31-1.91-.21-1.53-.46-3.14-.77-4.83s-.72-3.4-1.23-5.13c-.72-2.56-1.2-4.6-1.46-6.13-.26-1.53-.44-3.53-.54-5.98-.1-1.33-.18-2.5-.23-3.52-.05-1.02-.13-1.63-.23-1.84-.21-.31-.54-.61-.99-.92-.46-.31-.79-.36-1-.16-.1.21-.15.41-.15.61-.1.21-.15.46-.15.77s-.13,17.16-.23,17.47c-.21,2.35-.36-12.62-.61-11.81-.26.82-.64,1.18-1.15,1.07-.51-.1-.87-.54-1.07-1.3-.21-.77-.36-2.12-.46-4.07-.1-1.73-.23-2.88-.38-3.45-.15-.56-.59-1.3-1.3-2.22-.21-.21-.38-.56-.54-1.07s-.33-1.02-.54-1.53c-.21-1.02-.46-1.68-.77-1.99s-.82-.56-1.53-.77c-.51-.1-.9-.1-1.15,0-.26.1-.64.31-1.15.61-.71.51-1.3,1-1.76,1.46-.46.46-.99,1.1-1.61,1.91-1.23,1.74-1.99,3.4-2.3,4.98-.31,1.58-.21,3.5.31,5.74.41,1.53.61,2.61.61,3.22s-.15,1.48-.46,2.61c-.21.72-.33,1.51-.38,2.38-.05.87-.13,2.58-.23,5.13,0,4.4-.08,7.61-.23,9.66-.15,2.04-.49,3.78-1,5.21Z" style="fill: #fff; stroke: #898989; stroke-miterlimit: 10; stroke-width: 2px;"/>
      <path d="M105.83,101.07c-.31-.71-.71-1.73-1.23-3.06s-.97-2.61-1.38-3.84c-.82-2.25-1.61-4.23-2.38-5.97-.77-1.73-1.46-3.01-2.07-3.83-.41-.62-.74-1.25-.99-1.92-.26-.66-.49-1.48-.69-2.45-.21-.97-.36-2.2-.46-3.68-.1-1.48-.21-3.29-.31-5.44-.1-1.94-.18-3.52-.23-4.75-.05-1.23-.13-2.25-.23-3.06-.1-.82-.23-1.51-.38-2.07s-.33-1.05-.54-1.46l-.61-1.38v2.76c-.21,4.91-.87,8.03-1.99,9.35-.82,1.02-1.58.87-2.3-.46-.21-.41-.31-.84-.31-1.3s.05-1.35.15-2.68c.2-2.45.28-4.37.23-5.75-.05-1.38-.23-2.63-.54-3.75-.41-1.12-.66-3.01-.76-5.67,0-1.12-.05-2.22-.16-3.29-.1-1.08-.26-1.92-.46-2.53-.21-.61-.36-1.56-.46-2.84-.1-1.27-.26-2.53-.46-3.75-.1-1.43-.26-2.91-.46-4.44-.21-1.53-.41-2.86-.61-3.99-.21-1.13-.41-2.23-.61-3.3s-.36-1.86-.46-2.38c-.1-.51-.26-1.12-.46-1.84-.21-.71-.41-1.32-.61-1.84-1.64-3.99-1.74-7.3-.31-9.96.71-1.33,1.58-2.17,2.6-2.53,1.02-.36,3.01-.64,5.98-.84,1.33-.1,2.76-.2,4.29-.31,1.53-.1,2.71-.26,3.53-.46,2.86-.41,4.98-.54,6.36-.38,1.38.16,2.58.64,3.6,1.45.82.72,1.33,1.46,1.53,2.23s.31,2.48.31,5.13v4.6l1.23,5.37c.41,1.43.77,3.09,1.07,4.98.31,1.9.56,3.4.77,4.52.31,1.84.56,3.4.76,4.68s.41,2.45.61,3.52c.2,1.07.48,2.12.84,3.14s.85,2.3,1.46,3.83c1.74,3.99,2.89,7.97,3.45,11.96s.94,8.13,1.15,12.42c0,1.43.05,2.43.15,2.99.1.56.25,1,.46,1.3.31.61.92,1.07,1.84,1.38s1.69.36,2.3.16c.41-.21.74-.77.99-1.69.25-.92.59-2.7.99-5.36.51-3.78,1.15-7.48,1.92-11.11.77-3.63,1.71-7.23,2.83-10.81,1.02-2.35,1.84-4.42,2.45-6.21.61-1.79,1.07-3.58,1.38-5.37.31-1.78.48-3.6.54-5.44.05-1.84.08-3.99.08-6.44,0-6.03.23-10.42.69-13.18.46-2.76,1.25-4.8,2.38-6.13.71-.82,1.76-1.35,3.14-1.61,1.38-.26,2.89-.17,4.52.23.71.21,1.3.33,1.76.38.46.06,1.1.03,1.92-.07,1.12-.2,2.07-.26,2.83-.15.77.1,1.86.36,3.3.76,2.15.62,3.63,1.74,4.44,3.37.21.31.43.67.69,1.07.25.41.48.72.69.92.92.92,1.38,2.35,1.38,4.29,0,1.12-.26,2.68-.77,4.67-.51,2-1.33,4.78-2.45,8.36-.82,2.15-1.43,4.01-1.84,5.59s-.66,2.68-.77,3.29c-.41,2.35-.21,5.62.61,9.81.2,1.23.36,2.51.46,3.83.1,1.33.21,3.17.31,5.52.2,3.27.25,5.39.15,6.36-.1.97-.41,1.56-.92,1.76s-1.54,10.67-1.84,9.8c-.31-.87,0-13.28-.3-15.63-.31-1.43-.46-2.35-.46-2.76,0-.1-.1.08-.31.54-.21.46-.41,1.07-.61,1.84s-.41,1.59-.61,2.46c-.21.87-.41,1.66-.61,2.37-.41,1.74-.87,3.37-1.38,4.91-.51,1.53-1.23,3.22-2.15,5.06-.41,1.02-.82,2.05-1.23,3.06-.41,1.02-.85,2.23-1.3,3.6-.46,1.38-.97,3.04-1.53,4.98s-1.25,4.34-2.07,7.2c-.72,2.55-1.79,4.7-3.22,6.44l-1.07,1.53v1.84c0,.51.02,1.07.08,1.68.05.61.08,1.12.08,1.53.1.51.2,1.28.31,2.3.1,1.02,1.45,12.67,1.45,13.75s0-.87,0,0-1.35-6.34-1.45-6.23c-.82,1.63-1.89,2.09-3.22,1.38-.82-.41-1.38-1.43-1.69-3.07-.41-1.94-1.13-3.06-2.15-3.37-.51-.21-1.28-.26-2.3-.16-1.02.1-2.1.26-3.22.46-1.13.41-1.74.77-1.84,1.07-.21.41-.28,1.17-.23,2.3.05,1.12.18,2.4.38,3.84.41,2.04.46,4.04.15,5.97s-.03,14.51-.54,14.71c-.92.41-2.15-1.38-3.07-2.3-.61-.61-1.4-11.32-1.61-12.18-.21-.87-.41-2.22-.61-4.06-.21-2.25-.61-4.12-1.23-5.59-.61-1.48-2.1-2.58-4.45-3.3-1.63-.51-3.07-1.48-4.29-2.91-.51-.51-1.1-1-1.76-1.46-.67-.46-1.25-.69-1.76-.69s-1.05-.31-1.61-.92c-.56-.61-1-1.28-1.3-1.99,0-.21-.13-.62-.38-1.23-.26-.61-.59-1.28-1-2Z" style="fill: #fff; stroke: #898989; stroke-miterlimit: 10; stroke-width: 2px;"/>
      <path d="M174.19,22.59c-.31-1.63-.51-3.77-.61-6.44-.1-3.27.02-5.79.38-7.58.36-1.79.99-3.14,1.91-4.06.61-.62,1.3-1.02,2.07-1.23.76-.21,2.17-.26,4.21-.16,2.35.11,3.93.16,4.75.16s1.58-.1,2.3-.31c.61-.1,1.07-.1,1.38,0,.31.1.87.26,1.68.46l1.53.77,5.52-.15c3.88-.1,7.1-.16,9.66-.16s5.16.06,7.82.16h2.91c.71,0,1.46-.05,2.22-.16.77-.1,1.66-.28,2.68-.54,1.02-.25,2.4-.59,4.14-1,1.74-.51,3.6-.89,5.59-1.15,1.99-.26,3.55-.28,4.68-.07,3.47.61,5.87,2.15,7.2,4.6.51,1.23.56,3.47.15,6.74-.1.82-.18,1.74-.23,2.76-.05,1.02-.07,1.84-.07,2.45,0,1.02-.03,2.12-.08,3.29-.05,1.18-.13,2.28-.23,3.3s-.21,1.89-.31,2.61c-.1.71-.21,1.17-.31,1.38-.1.21-.21.56-.31,1.07s-.26,1.02-.46,1.53c-.82,3.67-2.1,5.51-3.83,5.51-.51,0-.92-.1-1.23-.31-.31-.2-.82-.66-1.53-1.38-.51-.51-.94-.89-1.3-1.15-.36-.26-.8-.49-1.3-.69-.72-.21-1.28-.33-1.69-.38s-1.33-.02-2.76.07c-1.74.1-3.65.26-5.75.46-2.1.21-3.45.41-4.06.61-.51.1-.97.36-1.38.77-.1.21-.23.64-.38,1.3-.15.66-.33,1.4-.54,2.22-.92,4.5-2.15,6.44-3.68,5.82-.51-.21-.92-.56-1.23-1.07-.21-.41-.31-.77-.31-1.07s.05-.87.15-1.68c.31-1.74.36-2.91.16-3.53-.21-.61-.82-1.22-1.84-1.84-.51-.2-.97-.36-1.38-.46s-1.33-.16-2.76-.16c-1.74-.1-2.91-.07-3.53.07-.61.16-1.33.59-2.15,1.3-1.84,1.53-2.3,3.17-1.38,4.91.31.51.56,1.33.76,2.45.31,1.84,1.28,3.17,2.91,3.99,1.12.51,4.39.51,9.81,0,1.12-.1,2.25-.17,3.37-.23,1.13-.05,1.94-.07,2.45-.07,1.12,0,1.89-.08,2.3-.23.41-.16,1.02-.54,1.84-1.15.41-.31.79-.56,1.15-.77.36-.21.89-.33,1.61-.39.71-.05,1.61-.07,2.68-.07s2.53.05,4.37.16c1.43,0,2.58.02,3.45.07.87.05,1.56.1,2.07.15.51.06.89.13,1.15.23.25.11.54.21.84.31.51.21,1.15.64,1.91,1.3.77.67,1.2,1.15,1.3,1.46v.31c0,.21.02.36.08.46.05.1.07.26.07.46v2.07c0,1.07-.05,2.25-.15,3.52-.1,1.28-.18,2.51-.23,3.68-.05,1.18-.13,1.97-.23,2.38-.1.21-.26.61-.46,1.23-.21.61-.41,1.22-.61,1.84-.72,1.53-1.46,2.63-2.22,3.29-.77.67-2.17,1.41-4.22,2.22-1.74.62-2.76,1.2-3.07,1.76-.31.56-.46,1.81-.46,3.75,0,3.27-.77,4.75-2.3,4.45-.51-.21-.87-.61-1.08-1.23-.21-.61-.41-1.68-.61-3.22-.31-3.27-.92-5-1.84-5.21-.41-.21-1.18-.21-2.3,0-.51,0-2.32-1.08-2.53.07-1.3,7.11-2.28,4.04-3.6,4.13-1.33,0-2.58-3.85-3.45-3.75-.87.11-1.56.23-2.07.39-.51.15-.92.38-1.23.69-.31.31-.66.72-1.07,1.23-.31.41-.69.82-1.15,1.23-.46.41-.89.76-1.3,1.07-1.33.92-2.2,1.84-2.61,2.76-.51,1.33-.46,2.81.15,4.45.51,1.63,1.17,2.66,1.99,3.06.31.11,1.12.18,2.45.23,1.33.06,2.84.06,4.52,0,1.69-.05,3.32-.12,4.91-.23,1.58-.1,2.78-.2,3.6-.31.82-.21,2.07-.33,3.76-.38,1.68-.05,3.85-.13,6.51-.23,2.15-.1,4.14-.18,5.98-.23,1.84-.05,2.96-.12,3.37-.23,1.74-.21,3.22.36,4.44,1.68,1.23,1.02,1.69,2.25,1.38,3.68,0,.31.02.97.07,2,.05,1.02.13,2.1.23,3.22.31,3.17.28,5.49-.08,6.97-.36,1.48-1.25,2.84-2.68,4.06-.41.31-.87.74-1.38,1.3-.51.56-.92,1.1-1.23,1.61-.82,1.13-1.43,1.9-1.84,2.3-.41.41-.97.72-1.69.92-1.63.51-2.86,1.4-3.68,2.68-.82,1.28-1.38,2.68-1.68,4.22-.31,1.74-.67,2.89-1.07,3.45-.41.56-1.02.84-1.84.84-.72,0-1.28-.26-1.69-.77s-.71-1.15-.92-1.91-.33-1.53-.38-2.3c-.05-.77-.07-1.41-.07-1.92-.1-2.05-.26-3.27-.46-3.67-.21-.41-.71-.72-1.53-.92-1.74-.51-5.82-.36-12.26.46-2.25.31-3.83.41-4.75.31-.92-.1-2.1-.41-3.52-.92-1.33-.62-2.56-.92-3.68-.92-.82,0-1.89.26-3.22.77-.51.21-1.07.41-1.69.61-.61.21-1.18.36-1.69.46-.92.21-1.63.41-2.15.61-.41.41-.77,1.94-1.07,4.6-.21,2.45-1.17,11.39-1.84,12.41s-.97-5.92-1.99-6.43c-.51-.21-.87-.56-1.07-1.07-.21-.21-.36-.51-.46-.92-.1-.41-.15-1.28-.15-2.61v-2.15c0-.62-.05-.97-.15-1.07-.1-.31-.64-.9-1.61-1.76-.97-.87-2.27-1.96-3.91-3.29-1.02-.82-1.81-1.48-2.38-2-.56-.51-1.05-1.02-1.46-1.53-.41-.51-.74-1.12-.99-1.83-.26-.72-.54-1.69-.85-2.91-.31-1.23-.56-2.28-.76-3.14-.21-.87-.28-1.76-.23-2.68.05-.92.18-1.97.38-3.14.2-1.17.51-2.68.92-4.52.31-1.63.56-3.01.77-4.14.2-1.12.36-2.34.46-3.68.1-1.32.15-2.88.15-4.67v-7.28c0-3.58-.02-6.46-.07-8.66-.05-2.2-.16-4.16-.31-5.9s-.36-3.4-.61-4.98c-.26-1.58-.64-3.5-1.15-5.74-.21-.82-.36-1.51-.46-2.07-.1-.56-.18-1.2-.23-1.91-.05-.72-.1-1.58-.15-2.61-.05-1.02-.08-2.35-.08-3.99-.1-3.07-.21-5.19-.31-6.36-.1-1.17-.26-2.28-.46-3.3Z" style="fill: #fff; stroke: #898989; stroke-miterlimit: 10; stroke-width: 2px;"/>
      <path d="M313.82,9.57c1.23.71,2.48,1.43,3.75,2.15,1.28.71,2.27,1.22,2.99,1.53,2.04.92,3.5,1.97,4.37,3.14.87,1.18,1.71,3.14,2.53,5.9.51,1.74,1.1,3.5,1.76,5.29.66,1.79,1.25,3.4,1.76,4.83,1.33,3.17,1.89,6.34,1.69,9.5,0,.61-.05,1.35-.16,2.22-.1.87-.26,1.56-.46,2.07-.21.72-.33,1.51-.38,2.38-.05.87-.13,2.12-.23,3.75l-.15,4.45-1.23,2.45c-1.33,2.56-2.38,4.63-3.14,6.21-.76,1.59-1.35,2.97-1.76,4.14-.41,1.18-.71,2.25-.92,3.22-.21.97-.41,2.22-.61,3.75-.41,3.17-.85,5.39-1.3,6.67-.46,1.28-1.1,2.18-1.92,2.68-.51.31-.89.46-1.15.46s-.64-.21-1.15-.61c-.31-.31-.56-.69-.77-1.15-.21-.46-.51-1.25-.92-2.37-.61-2.15-1.15-3.58-1.61-4.3-.46-.71-.99-.97-1.61-.76-.71.1-1.33.87-1.84,2.3-.1.72-.13,1.25-.07,1.61.05.36.28,1.2.69,2.53.51,2.05,1.15,3.75,1.91,5.13.77,1.38,1.97,3.09,3.6,5.13.92,1.13,1.58,2,1.99,2.61.41.61.87,1.53,1.38,2.76.2.52.48,1.1.84,1.76.36.67.79,1.3,1.3,1.91.82,1.13,1.35,2,1.61,2.61s.43,1.63.54,3.07c.1,1.33.36,2.25.77,2.76.2.41.36.74.46,1,.1.25.1.69,0,1.3-.1.51-2.78,20.48-2.83,21.45-.05.97,2.53-17.27,2.53-16.25-.21,2.15-.41,3.58-.61,4.29-.21.72-.56,1.12-1.07,1.23-.51.1-.84-.05-.99-.46-.15-.41-.28-1.33-.38-2.76-.21-1.43-.49-2.66-.84-3.68-.36-1.02-.8-1.74-1.3-2.15-.21-.21-.41-.31-.61-.31s-.56.1-1.07.31c-.71.21-1.28.26-1.68.16-.41-.11-1.02-.41-1.84-.92-.72-.41-1.15-.64-1.3-.69-.15-.06-.49.02-1,.22-1.13.41-1.68,1.63-1.68,3.68,0,2.25-.46,3.42-1.38,3.52-.71.21-1.33-.56-1.84-2.3-.31-.92-.61-1.51-.92-1.76-.31-.26-.92-.49-1.84-.69-2.05-.31-3.22-1.38-3.53-3.22,0-.31-.05-.76-.15-1.38-.1-.61-.26-1.22-.46-1.84-.21-1.43-.49-2.76-.85-3.99-.36-1.22-1.1-2.34-2.22-3.37-1.33-1.12-2.25-1.97-2.76-2.53s-1.02-1.5-1.53-2.83c-1.23-2.96-2.5-5.31-3.83-7.05-1.33-1.73-2.45-2.66-3.37-2.76-.21-.1-.38-.05-.54.15-.15.21-.44.72-.84,1.53l-.92,1.68.15,3.37c.1,1.33.15,2.3.15,2.91s-.1,1.23-.31,1.84c-.21.72-.31,1.28-.31,1.68s.1,1.18.31,2.3c.2,1.12.31,1.91.31,2.38s-.1.95-.31,1.45c-.1.72-.44,1.61-.99,2.68-.56,1.07-1.1,1.92-1.61,2.53-.82.82-1.28,1.38-1.38,1.68-.1.31-.15.97-.15,2,0,.82-.03,1.35-.08,1.61-.05.25-.18.48-.38.69-.51.51-3.35,12.93-4.06,12.41-.41-.21,1.38-13.13.92-13.94-.46-.82-.69-1.48-.69-2,0-.72-.92-.87-2.76-.46-1.13.41-1.86.9-2.22,1.46s-.64,1.86-.84,3.91c-.21,2.04-.54,3.47-1,4.29-.46.82-1.1,1.32-1.91,1.53-.61,0-1.13-.15-1.53-.46-.51-.41-.87-1-1.07-1.76-.21-.77-.46-2.02-.76-3.75-.21-1.84-.44-3.04-.69-3.6-.26-.56-.89-1.3-1.91-2.22-.82-.82-1.43-1.56-1.84-2.22-.41-.67-.87-1.97-1.38-3.91-.61-2.66-.56-5.77.15-9.35.2-1.02.41-2.01.61-2.99.2-.97.38-2.07.54-3.3.15-1.22.31-2.66.46-4.29.15-1.63.33-3.62.54-5.97.41-4.6.64-8.84.69-12.72.05-3.89-.02-7.66-.23-11.34-.51-5.31-.51-10.17,0-14.56.1-1.02.15-2.25.15-3.68s-.03-2.94-.08-4.52c-.05-1.58-.1-3.14-.15-4.68-.05-1.53-.18-2.91-.38-4.13-.21-2.05-.31-3.7-.31-4.98s.1-2.17.31-2.68c.1-.31.31-.74.61-1.3.31-.56.61-1.1.92-1.61.31-.51.66-1.1,1.07-1.76.41-.66.71-1.2.92-1.61,1.12-2.15,2.6-3.55,4.44-4.22,1.84-.66,3.83-1.1,5.98-1.3.82-.1,1.86-.22,3.14-.38,1.28-.16,2.48-.33,3.6-.54,1.12-.21,2.53-.38,4.21-.54,1.69-.16,3.19-.28,4.52-.38,1.43-.11,2.73-.18,3.91-.23,1.17-.05,1.96-.13,2.38-.23,1.12-.21,2.4-.28,3.83-.23s2.55.18,3.37.38c1.94.41,5.36,2.2,10.27,5.37ZM305.23,53.4c.61-1.02,1.2-2.88,1.76-5.59.56-2.71.84-5.34.84-7.89,0-2.35-.13-3.91-.38-4.68-.26-.77-.89-1.66-1.91-2.68-.82-.82-1.41-1.51-1.76-2.07s-.64-1.3-.84-2.22c-.31-1.63-.61-2.45-.92-2.45-.21,0-.59.05-1.15.15-.56.11-1.13.23-1.69.39-.56.15-1.1.31-1.61.46-.51.16-.77.29-.77.39-.1.1-.36.72-.77,1.84-.41,2.05-1.18,3.01-2.3,2.91-1.02-.21-1.53-1.28-1.53-3.22,0-1.23-.21-2.17-.61-2.84-.41-.66-.92-.89-1.53-.69-.41.21-.66.77-.76,1.69-.1.92-.21,2.96-.31,6.13-.1,1.73-.18,3.83-.23,6.28-.05,2.45-.13,4.55-.23,6.29-.1,1.43-.15,2.58-.15,3.45v1.99c0,.46.02.82.07,1.07.05.26.13.49.23.69.92,1.94,2.3,3.12,4.14,3.52.31.11.84.16,1.61.16h2.45c.87,0,1.68-.05,2.45-.16.77-.1,1.35-.2,1.76-.31,1.84-.41,3.22-1.28,4.14-2.61Z" style="fill: #fff; stroke: #898989; stroke-miterlimit: 10; stroke-width: 2px;"/>
      <path d="M333.08,14.59c.11-.54.68-1.29,1.71-2.25,1.02-.96,1.83-1.54,2.41-1.75.18-.13.61-.39,1.26-.77s1.36-.83,2.09-1.38c1.29-.95,2.12-1.51,2.51-1.68.38-.18,1.09-.3,2.11-.37,1.51-.27,2.93-.31,4.26-.13,1.33.18,2.71.51,4.14.98.56.21,1.12.58,1.67,1.1.56.53,1.11,1.15,1.66,1.89.15.29.36.85.61,1.69s.52,1.78.81,2.81c.28,1.04.58,2.1.87,3.19.29,1.09.51,2.04.66,2.84.27,1.51.52,3.67.75,6.48.24,2.81.36,5.15.38,7.01.02.72.04,1.39.04,2.01,0,.63.06,1.39.17,2.31.11.92.32,2.1.63,3.55.31,1.45.69,3.48,1.15,6.1.47,2.1.75,3.66.83,4.68.08,1.03.12,2.47.14,4.33.03,1.34.08,2.53.16,3.55.08,1.03.15,2.03.22,2.99.07.98.17,2,.31,3.06.14,1.07.29,2.36.45,3.89.13,1.33.28,2.44.43,3.34.16.91.31,1.66.47,2.25.16.59.36,1.13.59,1.61.24.48.5.95.79,1.42,1.14,1.77,2.15,2.91,3.02,3.44.87.52,2.23.72,4.08.6.62,0,1.13-.05,1.53-.12l1.28-.23c.45-.08,1-.23,1.64-.44.63-.21,1.49-.52,2.56-.92l2.94-.99,2.8-.02c1.24-.01,2.17-.05,2.78-.1.61-.05,1.41-.22,2.4-.5,1.59-.38,2.68-.41,3.25-.1s1.33,1.37,2.27,3.18c.31.57.57,1.2.8,1.89.22.68.51,2.04.87,4.05.44,1.9.75,3.53.94,4.89.19,1.37.26,2.52.22,3.46-.04.94-.21,1.77-.49,2.5-.29.72-.68,1.44-1.18,2.15-.42.59-.7,1.05-.85,1.4-.15.34-.22.81-.21,1.44,0,1.76-.41,2.71-1.21,2.85-.6.11-1.17-.46-1.7-1.72-.55-1.35-1.33-1.94-2.33-1.77-.4.07-1.16.46-2.28,1.18-.74.54-1.27.9-1.6,1.06s-.71.23-1.13.2c-.84-.06-1.56-.03-2.17.07-.62,0-.97.11-1.03.33s-.08,1-.05,2.35c.12,2.47-.26,3.52-1.16,3.16-.42-.03-.76-.8-1.03-2.31-.32-1.81-.66-2.57-1.03-2.31-.57.31-.75,1.95-.53,4.92.04.82.1,1.62.19,2.38.08.76.09,1.26.03,1.48-.08.74-.29,1.29-.64,1.66s-.71.38-1.08.04c-.47-.33-.81-1.93-1-4.81-.1-1.12-.2-1.88-.32-2.27-.12-.4-.46-.96-1-1.69-.72-1.12-1.33-1.79-1.83-2.01-.51-.22-1.62-.23-3.35-.03-.82.04-1.67.11-2.53.21-.87.1-1.55.2-2.05.29l-1.69.14-.32.84c-.07.22-.14.54-.22.97-.08.43,1.83,12.23,1.8,12.65.02,1.86-2.27-8.41-2.94-8.08-.47.29-.86.3-1.16.05s.39,1.07,0,0c-.51-1.16-2.01-3.9-2.38-4.25-.37-.35-2.01,9.93-2.61,10.03-2.3.51-3.29-4.92-3.78-4.78-.5.14-.08-4.27-.23-3.93.05.3.09.82.12,1.54s.06,1.52.11,2.39c.05.87.06,1.67.03,2.41-.03.73-.08,1.15-.17,1.27-.21.56-1.5,27.31-1.84,27.16-.54-.11.07-27-.18-27.58-.26-.58.36,13.51,0,11.5-.3-1.71-1.02-13.32-1.18-13.92-.16-.59-.96-6.29-1.54-7.23-.31-.57-.61-1.24-.9-2.02s-.53-1.41-.72-1.89c-.19-.49-.4-1.1-.63-1.84-.23-.73-.5-1.39-.81-1.95-.34-.77-.66-1.65-.93-2.64-.28-.98-.59-2.49-.95-4.5-.33-1.29-.6-2.33-.79-3.13-.19-.8-.36-1.47-.51-2.01-.15-.54-.29-1.06-.43-1.56-.14-.49-.38-1.12-.72-1.89-.4-1.08-.7-2.19-.9-3.34s-.32-2.72-.36-4.69c-.1-1.74-.33-3.93-.69-6.57-.36-2.63-.86-5.45-1.49-8.45-.25-1.41-.39-2.32-.4-2.73-.02-.41.07-1.21.28-2.39.34-2.76.06-5.51-.84-8.26-.42-1.17-.72-2.15-.91-2.96-.19-.8-.31-1.91-.36-3.36,0-.52,0-1.37-.06-2.56-.05-1.18-.12-2.42-.19-3.7-.07-1.28-.17-2.59-.3-3.91-.13-1.33-.22-2.4-.25-3.22-.09-.5-.2-1.26-.33-2.28-.13-1.02-.21-1.93-.25-2.75-.15-1.43-.28-2.46-.4-3.12s-.36-1.47-.74-2.44c-.43-1.27-.67-2.16-.71-2.67-.04-.51.08-1.15.36-1.93Z" style="fill: #fff; stroke: #898989; stroke-miterlimit: 10; stroke-width: 2px;"/>
      <path d="M402.86,22.59c-.31-1.63-.51-3.77-.61-6.44-.1-3.27.02-5.79.38-7.58.36-1.79.99-3.14,1.91-4.06.61-.62,1.3-1.02,2.07-1.23.76-.21,2.17-.26,4.21-.16,2.35.11,3.93.16,4.75.16s1.58-.1,2.3-.31c.61-.1,1.07-.1,1.38,0,.31.1.87.26,1.68.46l1.53.77,5.52-.15c3.88-.1,7.1-.16,9.66-.16s5.16.06,7.82.16h2.91c.71,0,1.46-.05,2.22-.16.77-.1,1.66-.28,2.68-.54,1.02-.25,2.4-.59,4.14-1,1.74-.51,3.6-.89,5.59-1.15,1.99-.26,3.55-.28,4.68-.07,3.47.61,5.87,2.15,7.2,4.6.51,1.23.56,3.47.15,6.74-.1.82-.18,1.74-.23,2.76-.05,1.02-.07,1.84-.07,2.45,0,1.02-.03,2.12-.08,3.29-.05,1.18-.13,2.28-.23,3.3-.1,1.02-.21,1.89-.31,2.61-.1.71-.21,1.17-.31,1.38-.1.21-.21.56-.31,1.07s-.26,1.02-.46,1.53c-.82,3.67-2.1,5.51-3.83,5.51-.51,0-.92-.1-1.23-.31-.31-.2-.82-.66-1.53-1.38-.51-.51-.94-.89-1.3-1.15-.36-.26-.8-.49-1.3-.69-.72-.21-1.28-.33-1.69-.38s-2.32,4.42-3.75,4.52c-1.74.1-2.66-4.19-4.75-3.98-2.1.21-3.45.41-4.06.61-.51.1-.97.36-1.38.77-.1.21,5.6-2.05,5.44-1.38-.15.66-6.16,4.08-6.36,4.9.57-1.47-1.73,4.78-3.68,5.82-.51-.21-.92-.56-1.23-1.07-.21-.41-.31-.77-.31-1.07s.05-.87.15-1.68c.31-1.74.36-2.91.16-3.53-.21-.61-.82-1.22-1.84-1.84-.51-.2-.97-.36-1.38-.46s-1.33-.16-2.76-.16c-1.74-.1-2.91-.07-3.53.07-.61.16-1.33.59-2.15,1.3-1.84,1.53-2.3,3.17-1.38,4.91.31.51.56,1.33.76,2.45.31,1.84,1.28,3.17,2.91,3.99,1.12.51,4.39.51,9.81,0,1.12-.1,2.25-.17,3.37-.23,1.13-.05,1.94-.07,2.45-.07,1.12,0,1.89-.08,2.3-.23.41-.16,1.02-.54,1.84-1.15.41-.31.79-.56,1.15-.77.36-.21.89-.33,1.61-.39.71-.05,1.61-.07,2.68-.07s2.53.05,4.37.16c1.43,0,2.58.02,3.45.07.87.05,1.56.1,2.07.15.51.06.89.13,1.15.23.25.11.54.21.84.31.51.21,1.15.64,1.91,1.3.77.67,1.2,1.15,1.3,1.46v.31c0,.21.02.36.08.46.05.1.07.26.07.46v2.07c0,1.07-.05,2.25-.15,3.52-.1,1.28-.18,2.51-.23,3.68-.05,1.18-.13,1.97-.23,2.38-.1.21-.26.61-.46,1.23-.21.61-.41,1.22-.61,1.84-.72,1.53-1.46,2.63-2.22,3.29-.77.67-2.17,1.41-4.22,2.22-1.74.62-2.76,1.2-3.07,1.76-.31.56-.46,1.81-.46,3.75,0,3.27-.77,4.75-2.3,4.45-.51-.21-.87-.61-1.08-1.23-.21-.61-.41-1.68-.61-3.22-.31-3.27-.92-5-1.84-5.21-.41-.21-1.18-.21-2.3,0-.51,0-1.36.02-2.53.07-1.18.05-2.43.13-3.75.23-1.33,0-2.43.05-3.3.15-.87.11-1.56.23-2.07.39-.51.15-.92.38-1.23.69-.31.31-.66.72-1.07,1.23-.31.41-.69.82-1.15,1.23-.46.41-.89.76-1.3,1.07-1.33.92-2.2,1.84-2.61,2.76-.51,1.33-.46,2.81.15,4.45.51,1.63,1.17,2.66,1.99,3.06.31.11,1.12.18,2.45.23,1.33.06,2.84.06,4.52,0,1.69-.05,3.32-.12,4.91-.23,1.58-.1,2.78-.2,3.6-.31.82-.21,2.07-.33,3.76-.38,1.68-.05,3.85-.13,6.51-.23,2.15-.1,4.14-.18,5.98-.23,1.84-.05,2.96-.12,3.37-.23,1.74-.21,3.22.36,4.44,1.68,1.23,1.02,1.69,2.25,1.38,3.68,0,.31.02.97.07,2,.05,1.02.13,2.1.23,3.22.31,3.17.28,5.49-.08,6.97-.36,1.48-1.25,2.84-2.68,4.06-.41.31-.87.74-1.38,1.3-.51.56-.92,1.1-1.23,1.61-.82,1.13-1.43,1.9-1.84,2.3-.41.41-.97.72-1.69.92-1.63.51-2.86,1.4-3.68,2.68-.82,1.28-1.38,2.68-1.68,4.22-.31,1.74-.67,2.89-1.07,3.45-.41.56-1.02.84-1.84.84-.72,0-1.28-.26-1.69-.77s-.71-1.15-.92-1.91-.33-1.53-.38-2.3c-.05-.77-.07-1.41-.07-1.92-.1-2.05-.26-3.27-.46-3.67-.21-.41-3.16,1.58-3.98,1.37-1.74-.51-3.37-2.65-9.81-1.84-2.25.31-3.83.41-4.75.31-.92-.1-2.1-.41-3.52-.92-1.33-.62-2.56-.92-3.68-.92-.82,0-1.89.26-3.22.77-.51.21-1.07.41-1.69.61-.61.21-1.18.36-1.69.46-.92.21-1.63.41-2.15.61-.41.41-.77,1.94-1.07,4.6-.21,2.45-.64,4.18-1.3,5.21-.66,1.02-1.51,1.28-2.53.77-.51-.21-.87-.56-1.07-1.07-.21-.21-.36-.51-.46-.92-.1-.41-.15-1.28-.15-2.61v-2.15c0-.62-.05-.97-.15-1.07-.1-.31-.64-.9-1.61-1.76-.97-.87-2.27-1.96-3.91-3.29-1.02-.82-1.81-1.48-2.38-2s-1.05-1.02-1.46-1.53c-.41-.51-.74-1.12-.99-1.83-.26-.72-.54-1.69-.85-2.91-.31-1.23-.56-2.28-.76-3.14-.21-.87-.28-1.76-.23-2.68.05-.92.18-1.97.38-3.14.2-1.17.51-2.68.92-4.52.31-1.63.56-3.01.77-4.14.2-1.12.36-2.34.46-3.68.1-1.32.15-2.88.15-4.67v-7.28c0-3.58-.02-6.46-.07-8.66-.05-2.2-.16-4.16-.31-5.9-.15-1.74-.36-3.4-.61-4.98-.26-1.58-.64-3.5-1.15-5.74-.21-.82-.36-1.51-.46-2.07-.1-.56-.18-1.2-.23-1.91-.05-.72-.1-1.58-.15-2.61-.05-1.02-.08-2.35-.08-3.99-.1-3.07-.21-5.19-.31-6.36-.1-1.17-.26-2.28-.46-3.3Z" style="fill: #fff; stroke: #898989; stroke-miterlimit: 10; stroke-width: 2px;"/>
      <path d="M506.77,101.07c-.31-.71-.71-1.73-1.23-3.06-.51-1.33-.97-2.61-1.38-3.84-.82-2.25-1.61-4.23-2.38-5.97-.77-1.73-1.46-3.01-2.07-3.83-.41-.62-.74-1.25-.99-1.92-.26-.66-.49-1.48-.69-2.45-.21-.97-.36-2.2-.46-3.68-.1-1.48-.21-3.29-.31-5.44-.1-1.94-.18-3.52-.23-4.75-.05-1.23-.13-2.25-.23-3.06-.1-.82-.23-1.51-.38-2.07s-.33-1.05-.54-1.46l-.61-1.38v2.76c-.21,4.91-1.25,25.96-2.37,27.28-.82,1.02-1.21-17.06-1.92-18.39-.21-.41-.31-.84-.31-1.3s.05-1.35.15-2.68c.2-2.45.28-4.37.23-5.75-.05-1.38-.23-2.63-.54-3.75-.41-1.12-.66-3.01-.76-5.67,0-1.12-.05-2.22-.16-3.29-.1-1.08-.26-1.92-.46-2.53-.21-.61-.36-1.56-.46-2.84-.1-1.27-.26-2.53-.46-3.75-.1-1.43-.26-2.91-.46-4.44-.21-1.53-.41-2.86-.61-3.99-.21-1.13-.41-2.23-.61-3.3-.21-1.07-.36-1.86-.46-2.38-.1-.51-.26-1.12-.46-1.84-.21-.71-.41-1.32-.61-1.84-1.64-3.99-1.74-7.3-.31-9.96.71-1.33,1.58-2.17,2.6-2.53,1.02-.36,3.01-.64,5.98-.84,1.33-.1,2.76-.2,4.29-.31,1.53-.1,2.71-.26,3.53-.46,2.86-.41,4.98-.54,6.36-.38,1.38.16,2.58.64,3.6,1.45.82.72,1.33,1.46,1.53,2.23s.31,2.48.31,5.13v4.6l1.23,5.37c.41,1.43.77,3.09,1.07,4.98.31,1.9.56,3.4.77,4.52.31,1.84.56,3.4.76,4.68.21,1.28.41,2.45.61,3.52.2,1.07.48,2.12.84,3.14s.85,2.3,1.46,3.83c1.74,3.99,2.89,7.97,3.45,11.96s.94,8.13,1.15,12.42c0,1.43.05,2.43.15,2.99.1.56.25,1,.46,1.3.31.61.92,1.07,1.84,1.38s1.69.36,2.3.16c.41-.21.74-.77.99-1.69.25-.92.59-2.7.99-5.36.51-3.78,1.15-7.48,1.92-11.11.77-3.63,1.71-7.23,2.83-10.81,1.02-2.35,1.84-4.42,2.45-6.21.61-1.79,1.07-3.58,1.38-5.37.31-1.78.48-3.6.54-5.44.05-1.84.08-3.99.08-6.44,0-6.03.23-10.42.69-13.18.46-2.76,1.25-4.8,2.38-6.13.71-.82,1.76-1.35,3.14-1.61,1.38-.26,2.89-.17,4.52.23.71.21,1.3.33,1.76.38.46.06,1.1.03,1.92-.07,1.12-.2,2.07-.26,2.83-.15.77.1,1.86.36,3.3.76,2.15.62,3.63,1.74,4.44,3.37.21.31.43.67.69,1.07.25.41.48.72.69.92.92.92,1.38,2.35,1.38,4.29,0,1.12-.26,2.68-.77,4.67-.51,2-1.33,4.78-2.45,8.36-.82,2.15-1.43,4.01-1.84,5.59-.41,1.58-.66,2.68-.77,3.29-.41,2.35-.21,5.62.61,9.81.2,1.23-.1,16.15,0,17.47.1,1.33-1.33-3.35-1.23-1,.2,3.27-4.11,28.23-4.21,29.19-.1.97,5.95-28.4,5.44-28.2s-.92-.13-1.23-1c-.31-.87-.61-2.48-.92-4.83-.31-1.43-.46-2.35-.46-2.76,0-.1-.1.08-.31.54-.21.46-.41,1.07-.61,1.84s-.41,1.59-.61,2.46c-.21.87-.41,1.66-.61,2.37-.41,1.74-.87,3.37-1.38,4.91-.51,1.53-1.23,3.22-2.15,5.06-.41,1.02-.82,2.05-1.23,3.06-.41,1.02-.85,2.23-1.3,3.6-.46,1.38-.97,3.04-1.53,4.98-.56,1.94-1.25,4.34-2.07,7.2-.72,2.55-1.79,4.7-3.22,6.44l-1.07,1.53v1.84c0,.51.02,1.07.08,1.68.05.61.08,1.12.08,1.53.1.51,1.13,15.02,1.24,16.04.1,1.02-.78-11.67-.78-10.6v2.91c0,.87,2.79,26.02,2.69,26.13-.82,1.63-4.73-22.58-6.06-23.29-.82-.41-1.38-1.43-1.69-3.07-.41-1.94-1.13-3.06-2.15-3.37-.51-.21-1.28-.26-2.3-.16-1.02.1-2.1.26-3.22.46-1.13.41-1.74.77-1.84,1.07-.21.41-.28,1.17-.23,2.3.05,1.12.18,2.4.38,3.84.41,2.04.46,4.04.15,5.97s1.36,26,.85,26.21c-.92.41-3.91-22.83-4.83-23.76-.61-.61-.38,10.06-.58,9.2-.21-.87-1.06-13.64-1.26-15.48-.21-2.25-.61-4.12-1.23-5.59-.61-1.48-2.1-2.58-4.45-3.3-1.63-.51-3.07-1.48-4.29-2.91-.51-.51-1.1-1-1.76-1.46-.67-.46-1.25-.69-1.76-.69s-1.05-.31-1.61-.92c-.56-.61-1-1.28-1.3-1.99,0-.21-.13-.62-.38-1.23-.26-.61-.59-1.28-1-2Z" style="fill: #fff; stroke: #898989; stroke-miterlimit: 10; stroke-width: 2px;"/>
    </g>
  </g>
</svg>