<?xml version="1.0" encoding="UTF-8"?>
<svg id="Layer_2" data-name="Layer 2" xmlns="http://www.w3.org/2000/svg" width="200mm" height="138.36mm" viewBox="0 0 566.93 392.2">
  <g id="Layer_1-2" data-name="Layer 1">
    <path d="M387.11,380.29c.61,1.32,18.75,2.64,19.81,2.35,4.29-1.17,14.06,3.33,19.24,3.59.83.04,3.52,2.6,3.48,3.11-4.86.83-10.08.99-15.08,1.18-34.54,1.36-66.75,2.08-101.34,1.44-11.84-.22-301.51.88-313.22-.45-.1-.39,207.61-5.25,208.18-5.29,10.44-.68,70.8.19,81.28,0,27.75-.5,69.92-6.51,97.65-5.94Z" style="fill: #ed2025;"/>
    <g>
      <g>
        <path d="M441.85,63.05s-4.91-3.7-.28-8.44c0,0-1.47-1.49-3.42.59-1.95,2.08,0,.32,0,.32,0,0-3.19,4.03-.88,6.3,2.31,2.27,0,.32,0,.32,0,0,2.41,2.69,3.58,3.11.2.07.37.08.48-.01.73-.61.52-2.2.52-2.2Z" style="fill: #662810; stroke: #a78672; stroke-miterlimit: 10; stroke-width: .65px;"/>
        <polyline points="443.3 53.94 440.39 54.86 443.25 54.84" style="fill: #fff4d2;"/>
        <g id="Generative_Object" data-name="Generative Object">
          <path d="M365.9,169.23c13.55,5.86,25.66,9.57,40.73,7.82l-2.7,19.42c14.35,12.81,30.47,23.79,44.51,36.95,24.92,23.37,33,50.1,48.82,79.57,7.08,13.17,15,26,22.66,38.84-1.51,3.23-4.51,4.77-7.28,6.74-12.99-15.54-26.47-31.06-38.03-47.74-7.38-10.65-15.13-27.69-24.01-35.87-22.79-21.03-95.27-44.3-101.15-73.1-.45-2.21-.92-13.26,0-14.57.52-.73,3.3.07,4.05-.27,6.3-2.85,8.24-12.74,12.41-17.8Z" style="fill: #242424;"/>
          <path d="M340.81,226.95c.78,6.74,2.73,13.92,5.39,20.23,8.44,19.98,25.71,24.86.27,45.04-25.29,20.06-60.04,19.27-88.74,7.28,11.08-4.37,22.21-8.74,33.45-12.68,6.09-2.13,19.34-4.43,23.47-6.47,7.51-3.72,22.97-44.16,25.62-53.41h.54Z" style="fill: #242424;"/>
          <path d="M383.43,250.69c-7.82,11.43-37.22,53.08-48.28,57.72-4.1,1.72-15.47,3.33-20.5,4.32-24.6,4.81-49.83,7.04-74.45,11.87-5.12-5.89-5-14.18-4.32-21.58l55.29-16.18c-11.24,3.93-22.37,8.31-33.45,12.68,28.7,11.99,63.45,12.78,88.74-7.28,25.44-20.18,8.17-25.07-.27-45.04-2.67-6.31-4.61-13.49-5.39-20.23l.81-1.62c1.07,7.14,36.56,28.13,39.38,27.51.77-.17.85-2.56,2.43-2.16Z" style="fill: #0f0f0f;"/>
          <path d="M349.98,182.71c-.84,7.3-3.34,10.54-1.62,19.15,5.83,29.2,76.93,52.33,100.07,72.56,10.25,8.96,20.2,29.64,28.86,41.81,9.61,13.49,23.05,26.87,31.83,40.19-1.06.71,1.32,1.38,1.08,2.43-.56,2.41-2.75.8-2.97.81-6.24.31-5.81,1.23-9.98-2.97l-42.08-55.29c-2.32-4.79-3.54-11.21-5.39-14.84-6.52-12.75-51.26-30.04-65.27-37.49-12.73-6.77-35.82-19.31-42.08-32.37-.92-1.92-1.69-3.85-2.16-5.93.39-10.68,5.3-20.6,9.17-30.48.49-.19.55,2.3.54,2.43Z" style="fill: #242424;"/>
          <path d="M407.17,47.31c-.05.17.04.37,0,.54-2.16,8.31-3.83,17.01-9.71,23.74-10.98-2.32-41.7,11.52-52.06,17.26-.55.3-.15,1.55-.27,1.62-7.28,4.1-21.95,10.72-26.97,17.26-5.15-3.23-10.11-3.12-9.71-9.98,1.39-23.94,37.44-34.96,56.91-36.41,4.72-.35,11.5,1.25,16.72.54,10.02-1.37,16.73-9.88,21.85-17.8.85,1.26,1.95,2.43,3.24,3.24Z" style="fill: #754c29;"/>
          <path d="M348.37,103.95c.42,1.07,1.1,2.89,1.62,3.78-3.07,1.28-15.59,5.07-16.72,7.82-.05.12.98,1.04.54,2.43-1.14,3.57-2.13,7.21-3.24,10.79-4.35,14.03-11.75,36.57-9.17,50.98.65,3.63,3.1,6.93,3.78,10.52l-9.17,16.72c-2.35-2.39-12.3-5.78-12.95-8.9-.28-1.36,2.13-10.88,2.7-12.95,6.67-24.33,4.33-37.36,7.55-60.69.58-4.18,2.24-13.31,4.86-16.72,5.02-6.55,19.69-13.16,26.97-17.26,0,4.8,1.52,9.15,3.24,13.49Z" style="fill: #c19b83;"/>
          <path d="M522.07,101.8c-4.61,2.26-5.48,6.11-10.25,1.35-.73-.73.11-1.99,0-2.16-.53-.83-4.21-.3-2.16-4.86-5.52,1.8,3.01,8.18,0,12.41l7.28-1.35-1.89,3.24c-5.89,5.66-12.2,11.71-18.34,17.26-10.66,9.64-38.06,36.11-52.6,21.58-2.99-2.99-3.06-6.42-4.05-10.25,1.77-1.84,8.52-10.29,8.63-12.41,3,2.03,6.62,10.85,10.52,10.79,1.87-.03,17.94-10.04,20.5-11.87,3.11-2.22,19.65-16.08,20.23-18.61.24-1.04-1.36-4.25-1.08-6.47,1.64-13.12,7.1-10.8,15.37-18.61l1.35.81c-.48,4.7,1.04,1.78,1.89,2.43,2.43,1.85,2.86,10.98,6.2,13.76.53,1.4-1.38,2.51-1.62,2.97Z" style="fill: #c19b83;"/>
          <path d="M403.93,44.07c-5.12,7.92-11.82,16.43-21.85,17.8-5.22.71-12-.89-16.72-.54-19.48,1.45-55.53,12.47-56.91,36.41-.4,6.86,4.56,6.75,9.71,9.98-2.62,3.41-4.28,12.54-4.86,16.72-27.25-13.62-30.8-47.54-15.1-71.75-5.04,14.35-5.97,36.29,7.82,46.39-.66-23.22,14.69-38.3,36.68-42.62,19.95-3.92,44.78,1.84,59.07-16.18.04.21,1.85,3.32,2.16,3.78Z" style="fill: #8b5e3c;"/>
          <path d="M298.74,51.09c-13.13,6.12-17.12,22.71-16.99,36.14-6.24-27.4,7.45-54.46,37.22-57.18,19.46-1.78,44.31,10.04,60.69-4.86-.8,3.01-4.76,3.94-7.01,5.66,1.75,1.13,4.83-.58,6.74-1.35,15.31-6.16,25.17-23.69,43.43-24.01-5.55,2.69-11.64,4.91-16.45,8.9-5.46,4.53-8.4,11.32-14.57,15.64-29.53,20.69-72.69-6.31-93.06,21.04Z" style="fill: #ed1c24;"/>
          <path d="M363.47,168.69c-1.52-.54-3.27-1.47-4.86-.54-.05-.52-.58-.99-1.08-1.08-.81-.15-1.84.1-2.7,0,9.46-15.68,14.88-23.18,16.72-42.08.51-5.2,1.14-10.42,1.35-15.64-5.52-.04-15.87,6.56-20.23,2.7-.44-.39-2.22-3.51-2.7-4.32-.52-.88-1.2-2.71-1.62-3.78,13.41,6.65,27.52-1.71,41.54-.81-1.49,1.42-10.3,3.14-10.79,4.32-1.8,4.31.61,28.15-1.08,35.6-1.86,8.18-11.69,17.49-14.57,25.62Z" style="fill: #dcdcdd;"/>
          <path d="M371.56,124.99c-13.46,6.87-26.48,8.04-41,3.78,1.11-3.58,2.1-7.22,3.24-10.79l18.88-5.93c4.36,3.86,14.71-2.73,20.23-2.7-.21,5.23-.84,10.44-1.35,15.64Z" style="fill: #8b5e3c;"/>
          <path d="M213.5,306.79c-4.17,11.19-11.63,27.41-3.78,38.3-.05.19.85,1.19.54,2.43-.63,2.56-2.34,13.92-2.7,14.57-2.6,4.71-6.25-1.99-7.01-4.86-2.97-11.08-1.72-28.98-1.08-39.38.83-13.63-3.11-16.15,12.14-12.68.93.21,1.77,1.59,1.89,1.62Z" style="fill: #0f0f0f;"/>
          <path d="M525.85,390.95c-3.61.99-4.38,2.9-6.47-1.62-.65-1.41-1.22-8.05-1.62-9.17,10.24-2.6,26.38-4.78,30.75-15.64,3.45-.54,22.03-9.33,17.8.27-1.24,2.82-19.69,14.26-23.47,16.45-2.51,1.46-6.89,2.25-8.63,3.24-1.38.78-5.72,5.68-8.36,6.47Z" style="fill: #0f0f0f;"/>
          <path d="M228.07,307.33c-.08.71,1.79,12.62,2.16,14.03-8.91,2.13-18.18,15.22-20.5,23.74-7.86-10.89-.39-27.11,3.78-38.3,5.05,1.06,9.3,1.68,14.57.54Z" style="fill: #a78672;"/>
          <path d="M548.5,364.51c-4.37,10.86-20.51,13.04-30.75,15.64-2.09-5.91-4.41-7.61-8.09-12.41,3.14-2.43,7.35-3.65,10.25-6.47,8.24,4.49,19.36,4.69,28.59,3.24Z" style="fill: #a78672;"/>
          <path d="M448.7,126.61c-.11,2.12-6.87,10.57-8.63,12.41-.77.8-5.56,5.74-5.93,5.93-.11.06-2.31.59-2.43.54-6.48-2.89,1.63-8.12,3.51-11.06,8.91-13.96-2.73-29.15-5.39-43.7,2.23,4.64,19.01,33.42,18.88,35.87Z" style="fill: #dcdcdd;"/>
          <path d="M434.14,144.95c.37-.19,5.16-5.13,5.93-5.93.98,3.83,1.05,7.26,4.05,10.25,14.53,14.53,41.94-11.94,52.6-21.58-7.05,8.78-32.21,33.34-42.89,33.99-6.42.39-15.57-12.27-19.69-16.72Z" style="fill: #a78672;"/>
          <path d="M384.51,249.07c-.26.59-.72,1.09-1.08,1.62-1.58-.4-1.66,1.99-2.43,2.16-2.82.62-38.31-20.38-39.38-27.51l-.81,1.62h-.54c.79-2.76.53-7.42,2.16-10.25,6.25,13.06,29.35,25.6,42.08,32.37Z" style="fill: #0f0f0f;"/>
          <path d="M509.12,356.42c.29.44,1.9,1.27,2.16,2.43-.06.46-7.36,5.18-7.82,5.12-2.75-.34-33.02-36.93-36.41-41.81-4.67-6.72-8.3-13.42-11.87-20.77l42.08,55.29c4.17,4.2,3.74,3.28,9.98,2.97.21-.01,2.41,1.6,2.97-.81.24-1.05-2.14-1.72-1.08-2.43Z" style="fill: #0f0f0f;"/>
          <path d="M390.71,132.55c5.68,12.3,17.57,16.08,30.48,14.3l-6.2,10.52c-11.8-2.8-21.85-13.06-24.28-24.82Z" style="fill: #dcdcdd;"/>
          <path d="M357.54,167.07l-7.55,15.64c.01-.12-.05-2.62-.54-2.43-3.87,9.88-8.78,19.8-9.17,30.48-4.79-21.16,5.33-28.4,14.57-43.7.86.1,1.89-.15,2.7,0Z" style="fill: #0f0f0f;"/>
          <path d="M410.94,54.86c1.81,5.7,5.39,10.73,11.06,14.57,4.89-2.9-1.47-4.65-4.05-7.01,2.3-2.66,7.09,2.8,9.44,3.78,3.66,1.53,7.76,2.29,11.6,3.24-3.93.94-9.54-1.2-13.22-2.7-1.3.45-2.47,10.54-2.43,12.41-7.33-7.51-15.25-16.54-14.03-27.78,1.41.48,1.32,2.56,1.62,3.51Z" style="fill: #9a7c69;"/>
          <path d="M230.22,321.36c-.37-1.4-2.24-13.32-2.16-14.03.35-3.13,3.76-3.59,6.47-3.51-.88,7.87,1.17,14.46,3.51,21.31-6.5.49-6.1,2.81-7.82-3.78Z" style="fill: #0f0f0f;"/>
          <path d="M363.47,168.69l1.08.27c-4.01,5.49-5.98,17.72-14.3,16.99-.87-.46,7.05-17.03,8.36-17.8,1.58-.94,3.33,0,4.86.54Z" style="fill: #242424;"/>
          <path d="M519.91,361.27c-2.9,2.82-7.11,4.05-10.25,6.47-2.19.33-3.9-1.48-5.39-2.97,2.52-1.17,5.53-4.02,7.82-5.12.09-.04,1.53,1.11,1.62,1.08.92-.33-.32-1.3-.27-1.35,2.35-2.16,5.23-3.69,7.28-6.2,3.25,4.44,2.86,4.52-.81,8.09Z" style="fill: #242424;"/>
          <path d="M316,206.99l9.17-16.72c1.26,6.73-3.85,14.14-7.82,19.42-1.82.25-1.18-2.52-1.35-2.7Z" style="fill: #987b68;"/>
          <path d="M522.07,101.8c-1.81,3.44-4.25,5.97-7.01,8.63l1.89-3.24-7.28,1.35c3.01-4.23-5.52-10.61,0-12.41-2.06,4.56,1.63,4.03,2.16,4.86.11.16-.73,1.43,0,2.16,4.77,4.76,5.64.91,10.25-1.35Z" style="fill: #755f50;"/>
          <path d="M410.4,35.44c.65.79,1.2,1.75,1.62,2.7.29,3.73-5.87-4.83-6.47-.81,3.83.89,3.95,2.23,2.97,5.66l1.62-2.16,1.89.81c-.27,1.37.7,2.17.54,3.51-2.16,5.43-5.66,6.2-5.39,2.16-1.29-.81-2.39-1.98-3.24-3.24-.31-.46-2.12-3.56-2.16-3.78-1.13-6.69,3.88-10.65,8.63-4.86Z" style="fill: #b08c71;"/>
          <path d="M431.44,20.34c-5.89,6.71-11.98,12.74-19.42,17.8-.42-.94-.97-1.9-1.62-2.7,8.07-4.82,15.7-11.04,20.23-19.42l.81,4.32Z" style="fill: #9c1c1f;"/>
          <g>
            <path d="M444.39,35.98c-1.71-7.55-2.11-16.33-8.36-21.58-1.21,2.34-2.89,4-4.59,5.93l-.81-4.32c-4.53,8.38-12.16,14.6-20.23,19.42-4.75-5.8-9.76-1.84-8.63,4.86-14.29,18.03-39.12,12.26-59.07,16.18-21.99,4.32-37.34,19.39-36.68,42.62-13.79-10.1-12.86-32.05-7.82-46.39.33-.51.49-1.55.54-1.62,20.37-27.35,63.52-.35,93.06-21.04,6.17-4.32,9.11-11.11,14.57-15.64,4.81-3.99,10.9-6.22,16.45-8.9-18.26.32-28.11,17.84-43.43,24.01-1.92.77-4.99,2.48-6.74,1.35,2.25-1.73,6.21-2.66,7.01-5.66.65-.59,2.6-1.39,1.89-2.7-8.25,5.77-19.74,7.87-29.67,7.01-18.09-1.57-34.02-18.74-51.79-4.32,3.49-4.31,11.9-8.5,17.26-9.17,17.43-2.18,31.06,10.95,52.87,7.55,24.11-3.76,24.32-26.78,55.02-23.2,22.05,2.58,19.43,19.54,19.15,35.6Z" style="fill: #603913;"/>
            <path d="M423.08,10.63c.87,9.44-8.51,15.97-16.18,19.42l16.18-19.42Z" style="fill: #603913;"/>
          </g>
          <path d="M410.47,45.39c-.39,1.62.06,2.17-2.53,1.53.04-.17-.05.17,0,0,.94-3.48,1.62-.93,2.53-1.53Z" style="fill: #231f20;"/>
          <path d="M352.68,112.05l-18.88,5.93c.44-1.39-.59-2.31-.54-2.43,1.13-2.76,13.65-6.55,16.72-7.82.47.8,2.25,3.92,2.7,4.32Z" style="fill: #a78672;"/>
          <path d="M417.96,62.42c2.58,2.37,8.93,4.11,4.05,7.01-5.67-3.84-9.24-8.86-11.06-14.57,1.77,3.09,4.45,5.2,7.01,7.55Z" style="fill: #7b6354;"/>
          <g>
            <path d="M444.39,35.98c-.02,1.19-.55,2.82-.54,2.97.18,2.17,4.42,8.16,4.32,8.63-.28,1.31-3.2,1.65-4.32,2.16-.45.2.77,4.85-.44,4.44-2.15-.73-6.95,2.62-5.69,5.66,1.04,2.52,4.28,3.94,4.43,3.67,1.73-3.04-1.54,5.53-3.16,5.92-3.84-.95-7.94-1.71-11.6-3.24-2.35-.98-7.14-6.43-9.44-3.78-2.56-2.35-5.24-4.46-7.01-7.55-.3-.95-.2-3.03-1.62-3.51-1.22,11.24,6.7,20.27,14.03,27.78.08,3.81,3.91,17.16,2.7,19.69-1.78,3.72-11.49-7.42-12.95-9.17-3.68-4.41-9.65-16.81-15.64-18.07,5.88-6.73,7.55-15.42,9.71-23.74,2.26.92,3.41,1.87,4.74-2.07.43-1.28-.15-2.77.12-4.13l-1.89-.81-1.62,2.16c.98-3.43.86-4.77-2.97-5.66.61-4.02,6.76,4.54,6.47.81,7.44-5.06,13.53-11.09,19.42-17.8,1.7-1.93,3.37-3.6,4.59-5.93,6.25,5.25,6.66,14.03,8.36,21.58Z" style="fill: #c29b84;"/>
            <path d="M436.3,30.05c.03-.51,3.02.37.98,2.59,0,0-4.69-.66-13.18,3.14,0-2.97,12.07-3.54,12.2-5.73Z" style="fill: #564338;"/>
            <path d="M432.79,34.9c.68-.1,3.3-.12,3.51.81-1.81.95-.29,3.2-2.86,3.28-4.73.15-7-3.18-.65-4.09Z" style="fill: #231f20;"/>
          </g>
        </g>
        <path d="M441.43,49.69c-.08.46-4.32,1.14-3.93,8.45" style="fill: none; opacity: .79; stroke: #a78672; stroke-miterlimit: 10; stroke-width: .13px;"/>
        <path d="M443.96,53.12c-.37-.79-4.47.82-5.68,2.75-.49.64-.66,1.39-.88,2.61,0,0-.45,1.59.35,3.48,0,0,.34,1.29,4.04,3.29,0,0,1.5-1.8.52-2.33-.26-.29-1.36,1.47-4.21-2.39l-.71-2.05s2.08-4.24,6.56-4.29c0,0,1.07-.42,0-1.07Z" style="fill: #dc3826;"/>
        <path d="M443.3,49.87s-1.32,1.2-1.45-1.23" style="fill: none; stroke: #b18d79; stroke-miterlimit: 10; stroke-width: .65px;"/>
        <path d="M438.7,66.37c1.03-1.06,2.15-1.11,2.63,0" style="fill: none; opacity: .79; stroke: #a78672; stroke-miterlimit: 10; stroke-width: .13px;"/>
        <path d="M429.64,39.97s-.05.05-.13.13c-.23.24-.57.53-.59,1.11-.02.38.57.72.8.04.2-.59-.07-1.28-.07-1.28Z" style="fill: #8dbcc8; stroke: #426a75; stroke-miterlimit: 10; stroke-width: .01px;"/>
        <path d="M427.95,42.76s-.05.05-.13.13c-.23.24-.57.53-.59,1.11-.02.38.57.72.8.04.2-.59-.07-1.28-.07-1.28Z" style="fill: #8dbcc8; stroke: #426a75; stroke-miterlimit: 10; stroke-width: .01px;"/>
        <path d="M428.39,45.83s-.05.05-.13.13c0,0-.07.77-.28,1.31-.43,1.08.07,1.91.3,1.22.2-.59.11-2.67.11-2.67Z" style="fill: #8dbcc8; stroke: #426a75; stroke-miterlimit: 10; stroke-width: .05px;"/>
      </g>
      <path d="M423.35,79.14s19.5,30.75,13.93,48.55c-.85,4.53-2.06,6.74-10.05,16.44,0,0-20.33,13.23-36.52-11.59l24.28,24.82-8.36,19.69s-26.57,2.53-43.16-8.36l14.57-25.62,1.08-35.6,10.79-4.32-27.51,3.31s-11.77,4.06-14.03-2.5l-5.37-13.22s30.31-17.23,47.72-19.1c0,0,6.14-4.16,15.24,4.26,0,0,11.84,6.37,17.4,3.24Z" style="fill: #fff;"/>
    </g>
  </g>
</svg>